<?xml version="1.0" encoding="UTF-8"?><!DOCTYPE svg PUBLIC "-//W3C//DTD SVG 1.1//EN" "http://www.w3.org/Graphics/SVG/1.1/DTD/svg11.dtd"><svg xmlns="http://www.w3.org/2000/svg"><symbol id="svg-air-play" viewBox="0 0 24 24"><path d="M4 2h16q1.242 0 2.12.88T23 5v10q0 1.242-.88 2.12T20 18h-2.5L16 16h4q.414 0 .707-.293T21 15V5q0-.414-.293-.707T20 4H4q-.414 0-.707.293T3 5v10q0 .414.293.707T4 16h4l-1.5 2H4q-1.242 0-2.12-.88T1 15V5q0-1.242.88-2.12T4 2zm10 18l-2-2.664L10 20h4zm-8 2l6-8 6 8H6z"/></symbol><symbol id="svg-align-center" viewBox="0 0 24 24"><path d="M3 5h18q.414 0 .707.293T22 6t-.293.707T21 7H3q-.414 0-.707-.293T2 6t.293-.707T3 5zm2 12h14q.414 0 .707.293T20 18t-.293.707T19 19H5q-.414 0-.707-.293T4 18t.293-.707T5 17zm-2-4h18q.414 0 .707.293T22 14t-.293.707T21 15H3q-.414 0-.707-.293T2 14t.293-.707T3 13zm2-4h14q.414 0 .707.293T20 10t-.293.707T19 11H5q-.414 0-.707-.293T4 10t.293-.707T5 9z"/></symbol><symbol id="svg-align-justify" viewBox="0 0 24 24"><path d="M3 5h18q.414 0 .707.293T22 6t-.293.707T21 7H3q-.414 0-.707-.293T2 6t.293-.707T3 5zm0 12h18q.414 0 .707.293T22 18t-.293.707T21 19H3q-.414 0-.707-.293T2 18t.293-.707T3 17zm0-4h18q.414 0 .707.293T22 14t-.293.707T21 15H3q-.414 0-.707-.293T2 14t.293-.707T3 13zm0-4h18q.414 0 .707.293T22 10t-.293.707T21 11H3q-.414 0-.707-.293T2 10t.293-.707T3 9z"/></symbol><symbol id="svg-align-left" viewBox="0 0 24 24"><path d="M3 5h18q.414 0 .707.293T22 6t-.293.707T21 7H3q-.414 0-.707-.293T2 6t.293-.707T3 5zm0 12h14q.414 0 .707.293T18 18t-.293.707T17 19H3q-.414 0-.707-.293T2 18t.293-.707T3 17zm0-4h18q.414 0 .707.293T22 14t-.293.707T21 15H3q-.414 0-.707-.293T2 14t.293-.707T3 13zm0-4h14q.414 0 .707.293T18 10t-.293.707T17 11H3q-.414 0-.707-.293T2 10t.293-.707T3 9z"/></symbol><symbol id="svg-align-right" viewBox="0 0 24 24"><path d="M3 5h18q.414 0 .707.293T22 6t-.293.707T21 7H3q-.414 0-.707-.293T2 6t.293-.707T3 5zm4 12h14q.414 0 .707.293T22 18t-.293.707T21 19H7q-.414 0-.707-.293T6 18t.293-.707T7 17zm-4-4h18q.414 0 .707.293T22 14t-.293.707T21 15H3q-.414 0-.707-.293T2 14t.293-.707T3 13zm4-4h14q.414 0 .707.293T22 10t-.293.707T21 11H7q-.414 0-.707-.293T6 10t.293-.707T7 9z"/></symbol><symbol id="svg-alt" viewBox="0 0 24 24"><path d="M3 4h5q.57 0 .867.5l7.71 13.5H21q.414 0 .707.293T22 19t-.293.707T21 20h-5q-.57 0-.867-.5L7.423 6H3q-.414 0-.707-.293T2 5t.293-.707T3 4zm11 0h5q.414 0 .707.293T20 5t-.293.707T19 6h-5q-.414 0-.707-.293T13 5t.293-.707T14 4z"/></symbol><symbol id="svg-anchor" viewBox="0 0 24 24"><path d="M12 1q1.656 0 2.828 1.172T16 5q0 1.383-.844 2.457T13 8.867v12.078q1.664-.188 3.145-.965t2.547-1.957 1.688-2.75T21 12q0-.414.294-.707T22 11t.708.293T23 12q0 2.242-.87 4.277t-2.344 3.508-3.508 2.344T12 23t-4.276-.87-3.508-2.345-2.344-3.508T1.002 12q0-.414.292-.707T2 11t.708.293T3 12q0 1.703.622 3.273t1.688 2.75 2.547 1.957 3.145.965V8.867Q9.69 8.53 8.846 7.457T8.002 5q0-1.656 1.172-2.828T12.002 1zm0 2q-.828 0-1.414.586T10 5t.586 1.414T12 7t1.414-.586T14 5t-.586-1.414T12 3z"/></symbol><symbol id="svg-archive" viewBox="0 0 24 24"><path d="M6 3h12l6 6v9q0 1.242-.88 2.12T21 21H3q-1.242 0-2.12-.88T0 18V9zm16 15v-7h-4.39q-.665 1.734-2.216 2.867T12 15q-1.228 0-2.384-.523T7.6 13.043 6.31 11H2v7q0 .406.29.703t.71.297h18q.414 0 .707-.293t.293-.707zm-.828-9l-3.96-4H6.827l-4 4H8q0 .992.53 1.914t1.466 1.504T12 13t2.004-.582 1.465-1.504T16 9h5.172z"/></symbol><symbol id="svg-arrow-down" viewBox="0 0 24 24"><path d="M12 2q.414 0 .707.293T13 3v15.586l5.29-5.297q.288-.29.71-.29.43 0 .715.285T20 14q0 .422-.29.71l-7 7q-.288.29-.71.29t-.71-.29l-7-7Q4 14.423 4 14q0-.43.285-.715T5 13q.422 0 .71.29L11 18.585V3q0-.414.293-.707T12 2z"/></symbol><symbol id="svg-arrow-left" viewBox="0 0 24 24"><path d="M10 4q.414 0 .707.293T11 5q0 .422-.297.71L5.413 11H21q.414 0 .707.293T22 12t-.293.707T21 13H5.414l5.29 5.29q.296.288.296.71 0 .414-.293.707T10 20q-.422 0-.71-.29l-7-7Q2 12.407 2 12t.29-.71l7-7Q9.585 4 10 4z"/></symbol><symbol id="svg-arrow-right" viewBox="0 0 24 24"><path d="M14 4q.422 0 .71.29l7 7q.29.288.29.71t-.29.71l-7 7q-.288.29-.71.29-.43 0-.715-.285T13 19q0-.422.29-.71L18.585 13H3q-.414 0-.707-.293T2 12t.293-.707T3 11h15.586L13.29 5.71Q13 5.423 13 5q0-.43.285-.715T14 4z"/></symbol><symbol id="svg-arrow-up" viewBox="0 0 24 24"><path d="M12 2q.422 0 .71.29l7 7q.29.288.29.71 0 .43-.285.715T19 11q-.422 0-.71-.29L13 5.415V21q0 .414-.293.707T12 22t-.707-.293T11 21V5.414L5.71 10.71Q5.423 11 5 11q-.43 0-.715-.285T4 10q0-.422.29-.71l7-7Q11.577 2 12 2z"/></symbol><symbol id="svg-bag" viewBox="0 0 24 24"><path d="M12 0q1.016 0 1.94.398t1.595 1.066T16.6 3.058t.4 1.94v1h4v15q0 1.243-.88 2.122T18 24H6q-1.243 0-2.122-.88T2.998 21V6h4V5q0-1.017.4-1.942t1.065-1.594T10.057.398 11.997 0zm7 21V8H5v13q0 .414.293.707T6 22h12q.414 0 .707-.293T19 21zM12 2q-1.242 0-2.12.88T9 5v1h6V5q0-1.242-.88-2.12T12 2z"/></symbol><symbol id="svg-ban" viewBox="0 0 24 24"><path d="M12 1q2.242 0 4.277.87t3.508 2.345 2.344 3.508T23 12t-.87 4.277-2.345 3.508-3.508 2.344T12 23t-4.277-.87-3.508-2.345-2.344-3.508T1 12t.87-4.277 2.345-3.508T7.723 1.87 12 1zm5.617 18.03L4.97 6.384Q4.03 7.563 3.515 9T3 12q0 1.828.715 3.496t1.918 2.87 2.87 1.92T12 21q1.57 0 3.008-.512t2.61-1.457zM12 3q-1.57 0-3.008.512T6.382 4.97l12.65 12.647q.944-1.172 1.456-2.61T21 12q0-1.828-.715-3.496t-1.918-2.87-2.87-1.92T12 3z"/></symbol><symbol id="svg-bar-graph-2" viewBox="0 0 24 24"><path d="M12 1q1.242 0 2.12.88T15 4v16q0 1.242-.88 2.12T12 23t-2.12-.88T9 20V4q0-1.242.88-2.12T12 1zM4 13q1.242 0 2.12.88T7 16v4q0 1.242-.88 2.12T4 23t-2.12-.88T1 20v-4q0-1.242.88-2.12T4 13zm0 2q-.414 0-.707.293T3 16v4q0 .414.293.707T4 21t.707-.293T5 20v-4q0-.414-.293-.707T4 15zm8-12q-.414 0-.707.293T11 4v16q0 .414.293.707T12 21t.707-.293T13 20V4q0-.414-.293-.707T12 3zm8 4q1.242 0 2.12.88T23 10v10q0 1.242-.88 2.12T20 23t-2.12-.88T17 20V10q0-1.242.88-2.12T20 7zm0 2q-.414 0-.707.293T19 10v10q0 .414.293.707T20 21t.707-.293T21 20V10q0-.414-.293-.707T20 9z"/></symbol><symbol id="svg-bar-graph" viewBox="0 0 24 24"><path d="M20 1q1.242 0 2.12.88T23 4v16q0 1.242-.88 2.12T20 23t-2.12-.88T17 20V4q0-1.242.88-2.12T20 1zM4 13q1.242 0 2.12.88T7 16v4q0 1.242-.88 2.12T4 23t-2.12-.88T1 20v-4q0-1.242.88-2.12T4 13zm0 2q-.414 0-.707.293T3 16v4q0 .414.293.707T4 21t.707-.293T5 20v-4q0-.414-.293-.707T4 15zm8-8q1.242 0 2.12.88T15 10v10q0 1.242-.88 2.12T12 23t-2.12-.88T9 20V10q0-1.242.88-2.12T12 7zm0 2q-.414 0-.707.293T11 10v10q0 .414.293.707T12 21t.707-.293T13 20V10q0-.414-.293-.707T12 9zm8-6q-.414 0-.707.293T19 4v16q0 .414.293.707T20 21t.707-.293T21 20V4q0-.414-.293-.707T20 3z"/></symbol><symbol id="svg-battery" viewBox="0 0 24 24"><path d="M3 5h15q1.242 0 2.12.88T21 8q1.242 0 2.12.88T24 11v2q0 1.242-.88 2.12T21 16q0 1.242-.88 2.12T18 19H3q-1.242 0-2.12-.88T0 16V8q0-1.242.88-2.12T3 5zm15 2H3q-.414 0-.707.293T2 8v8q0 .414.293.707T3 17h15q.414 0 .707-.293T19 16V8q0-.414-.293-.707T18 7zm3 3v4q.414 0 .707-.293T22 13v-2q0-.414-.293-.707T21 10z"/></symbol><symbol id="svg-bell" viewBox="0 0 24 24"><path d="M12 1q1.29 0 2.438.418t2.04 1.152 1.6 1.746 1.185 2.187T20 9q.79 3.96 1.677 6.26T24 19h-9.17q.17.49.17 1 0 1.24-.878 2.12t-2.12.88-2.122-.88T9 20q0-.51.173-1H0q1.438-1.438 2.325-3.74T4 9q.267-1.32.74-2.497t1.183-2.187T7.525 2.57t2.04-1.152T12 1zm0 18q-.414 0-.707.293T11 20t.293.707T12 21t.707-.293T13 20t-.293-.707T12 19zm0-16q-.906 0-1.707.28T8.923 4t-1.06 1.05-.793 1.192-.55 1.234-.364 1.082-.195.832q-1 5.04-2.202 7.61h16.484q-1.203-2.57-2.203-7.61-.08-.406-.196-.832t-.363-1.082-.55-1.234-.793-1.19T15.077 4t-1.37-.72T12 3z"/></symbol><symbol id="svg-book" viewBox="0 0 24 24"><path d="M5 1h16v22H5q-1.242 0-2.12-.88T2 20V4q0-1.242.88-2.12T5 1zm14 20v-2H5q-.414 0-.707.293T4 20t.293.707T5 21h14zm0-4V3H5q-.414 0-.707.293T4 4v13.172Q4.492 17 5 17h14z"/></symbol><symbol id="svg-box" viewBox="0 0 24 24"><path d="M1 5l11-5 11 5v14l-11 5-11-5V5zm10 5.64L3 7.01V17.71l8 3.642v-10.71zm10 7.07V7.01l-8 3.633v10.712zM19.375 5.548L12 2.195 4.625 5.547 12 8.9z"/></symbol><symbol id="svg-briefcase" viewBox="0 0 24 24"><path d="M10 2h4q1.242 0 2.12.88T17 5v1h3q1.242 0 2.12.88T23 9v10q0 1.242-.88 2.12T20 22H4q-1.242 0-2.12-.88T1 19V9q0-1.242.88-2.12T4 6h3V5q0-1.242.88-2.12T10 2zM5 20V8H4q-.414 0-.707.293T3 9v10q0 .414.293.707T4 20h1zm12 0V8H7v12h10zm3-12h-1v12h1q.414 0 .707-.293T21 19V9q0-.414-.293-.707T20 8zm-6-4h-4q-.414 0-.707.293T9 5v1h6V5q0-.414-.293-.707T14 4z"/></symbol><symbol id="svg-camera" viewBox="0 0 24 24"><path d="M8 2h8l2 3h3q1.242 0 2.12.895T24 8.032v10.984q0 1.242-.88 2.113T21 22H3q-1.242 0-2.12-.88T0 19V8.016q0-1.242.88-2.13T3 5h3zm4 6q1.016 0 1.94.398t1.595 1.066 1.066 1.594.4 1.94-.4 1.942-1.065 1.594T13.94 17.6t-1.94.398-1.94-.398-1.595-1.066T7.4 14.94 7 13t.4-1.942 1.065-1.594 1.594-1.066T12 8zm0 2q-1.242 0-2.12.88T9 13t.88 2.12T12 16t2.12-.88T15 13t-.88-2.12T12 10zm4.93-3l-1.96-3h-5.9l-2 3H3q-.413 0-.706.297T2 8.017V19q0 .414.294.707T3 20h18q.423 0 .712-.285t.29-.7V8.033q0-.422-.298-.727T21 7h-4.07z"/></symbol><symbol id="svg-check" viewBox="0 0 24 24"><path d="M21 5q.43 0 .715.285T22 6q0 .422-.29.71l-12 12Q9.423 19 9 19t-.71-.29l-6-6Q2 12.423 2 12q0-.43.285-.715T3 11q.422 0 .71.29L9 16.585 20.29 5.29Q20.577 5 21 5z"/></symbol><symbol id="svg-circle-check" viewBox="0 0 24 24"><path d="M12 1q2.242 0 4.277.87t3.508 2.345 2.344 3.508T23 12t-.87 4.277-2.345 3.508-3.508 2.344T12 23t-4.277-.87-3.508-2.345-2.344-3.508T1 12t.87-4.277 2.345-3.508T7.723 1.87 12 1zm0 2q-1.828 0-3.496.715t-2.87 1.918-1.92 2.87T3 12t.715 3.496 1.918 2.87 2.87 1.92T12 21t3.496-.715 2.87-1.918 1.92-2.87T21 12t-.715-3.496-1.918-2.87-2.87-1.92T12 3zm3.367 5.992q.414 0 .707.293t.293.707-.297.71l-4.242 4.243q-.29.29-.703.29-.422 0-.71-.29l-2.126-2.117q-.29-.29-.29-.71 0-.415.293-.708T9 11.117t.71.297l1.415 1.414 3.53-3.54q.298-.296.712-.296z"/></symbol><symbol id="svg-circle-cross" viewBox="0 0 24 24"><path d="M12 1q2.242 0 4.277.87t3.508 2.345 2.344 3.508T23 12t-.87 4.277-2.345 3.508-3.508 2.344T12 23t-4.277-.87-3.508-2.345-2.344-3.508T1 12t.87-4.277 2.345-3.508T7.723 1.87 12 1zm0 2q-1.828 0-3.496.715t-2.87 1.918-1.92 2.87T3 12t.715 3.496 1.918 2.87 2.87 1.92T12 21t3.496-.715 2.87-1.918 1.92-2.87T21 12t-.715-3.496-1.918-2.87-2.87-1.92T12 3zm2.828 5.164q.414 0 .71.293t.298.707-.297.71L13.413 12l2.125 2.117q.296.297.296.703 0 .414-.297.707t-.712.293-.703-.29L12 13.415 9.883 15.53q-.29.29-.71.29-.415 0-.708-.29t-.293-.702q0-.422.29-.71L10.585 12 8.46 9.875q-.288-.29-.288-.703t.293-.71.707-.298.71.297L12 10.587l2.125-2.125q.297-.296.703-.296z"/></symbol><symbol id="svg-circle-minus" viewBox="0 0 24 24"><path d="M12 1q2.242 0 4.277.87t3.508 2.345 2.344 3.508T23 12t-.87 4.277-2.345 3.508-3.508 2.344T12 23t-4.277-.87-3.508-2.345-2.344-3.508T1 12t.87-4.277 2.345-3.508T7.723 1.87 12 1zm0 2q-1.828 0-3.496.715t-2.87 1.918-1.92 2.87T3 12t.715 3.496 1.918 2.87 2.87 1.92T12 21t3.496-.715 2.87-1.918 1.92-2.87T21 12t-.715-3.496-1.918-2.87-2.87-1.92T12 3zm-4 8h8q.414 0 .707.293T17 12t-.293.707T16 13H8q-.414 0-.707-.293T7 12t.293-.707T8 11z"/></symbol><symbol id="svg-circle-plus" viewBox="0 0 24 24"><path d="M12 1q2.242 0 4.277.87t3.508 2.345 2.344 3.508T23 12t-.87 4.277-2.345 3.508-3.508 2.344T12 23t-4.277-.87-3.508-2.345-2.344-3.508T1 12t.87-4.277 2.345-3.508T7.723 1.87 12 1zm0 2q-1.828 0-3.496.715t-2.87 1.918-1.92 2.87T3 12t.715 3.496 1.918 2.87 2.87 1.92T12 21t3.496-.715 2.87-1.918 1.92-2.87T21 12t-.715-3.496-1.918-2.87-2.87-1.92T12 3zm0 4q.414 0 .707.293T13 8v3h3q.414 0 .707.293T17 12t-.293.707T16 13h-3v3q0 .414-.293.707T12 17t-.707-.293T11 16v-3H8q-.414 0-.707-.293T7 12t.293-.707T8 11h3V8q0-.414.293-.707T12 7z"/></symbol><symbol id="svg-clipboard" viewBox="0 0 24 24"><path d="M10 1h4q.97 0 1.742.56T16.828 3H18q1.242 0 2.12.88T21 6v14q0 1.242-.88 2.12T18 23H6q-1.242 0-2.12-.88T3 20V6q0-1.242.88-2.12T6 3h1.172q.312-.883 1.086-1.44T10 1zm8 4h-1.172q-.312.883-1.086 1.44T14 7h-4q-.97 0-1.742-.56T7.172 5H6q-.414 0-.707.293T5 6v14q0 .414.293.707T6 21h12q.414 0 .707-.293T19 20V6q0-.414-.293-.707T18 5zm-4-2h-4q-.414 0-.707.293T9 4t.293.707T10 5h4q.414 0 .707-.293T15 4t-.293-.707T14 3z"/></symbol><symbol id="svg-clock" viewBox="0 0 24 24"><path d="M12 1q2.242 0 4.277.87t3.508 2.345 2.344 3.508T23 12t-.87 4.277-2.345 3.508-3.508 2.344T12 23t-4.277-.87-3.508-2.345-2.344-3.508T1 12t.87-4.277 2.345-3.508T7.723 1.87 12 1zm0 2q-1.828 0-3.496.715t-2.87 1.918-1.92 2.87T3 12t.715 3.496 1.918 2.87 2.87 1.92T12 21t3.496-.715 2.87-1.918 1.92-2.87T21 12t-.715-3.496-1.918-2.87-2.87-1.92T12 3zm0 2q.414 0 .707.293T13 6v5.586l2.71 2.703q.29.288.29.71t-.29.71T15 16t-.71-.29l-3-3Q11 12.423 11 12V6q0-.414.293-.707T12 5z"/></symbol><symbol id="svg-cloud-download" viewBox="0 0 24 24"><path d="M15 2q1.828 0 3.496.715t2.87 1.918 1.92 2.87T24 11q0 1.992-.82 3.766t-2.266 3.027-3.28 1.816l.49-.485q.423-.43.657-1 .22-.53.22-1.156 0-.157-.008-.22 1.39-.97 2.2-2.48T22 11q0-1.422-.555-2.72t-1.492-2.233-2.234-1.492T15 4q-1.297 0-2.496.465t-2.11 1.262-1.522 1.906T8.08 10H6q-1.655 0-2.827 1.172T2 14q0 .906.356 1.68t.934 1.27 1.285.773T6 18h1.173q.273.687.703 1.125L8.76 20H6q-1.632 0-3.01-.805T.804 17.01 0 14t.805-3.013T2.99 8.803 6 7.998h.517q.617-1.742 1.86-3.098t2.972-2.13T15 2zm-2 8q.414 0 .707.293T14 11v6.586l1.29-1.297q.288-.29.71-.29.43 0 .715.285T17 17q0 .422-.29.71l-3 3q-.288.29-.71.29t-.71-.29l-3-3Q9 17.407 9 17q0-.414.293-.707T10 16q.422 0 .71.29L12 17.585V11q0-.414.293-.707T13 10z"/></symbol><symbol id="svg-cloud-upload" viewBox="0 0 24 24"><path d="M15 2q1.828 0 3.496.715t2.87 1.918 1.92 2.87T24 11q0 1.703-.62 3.273t-1.69 2.75-2.546 1.957-3.145.965V17.93q1.68-.243 3.05-1.216t2.16-2.477T22 11q0-1.423-.556-2.72t-1.492-2.234-2.234-1.492T14.998 4q-1.296 0-2.495.464t-2.11 1.262-1.522 1.906T8.08 10H6q-1.656 0-2.828 1.17T2 14q0 .905.355 1.68t.934 1.27 1.284.772T6 18h4v2H6q-1.633 0-3.012-.806T.804 17.01 0 13.998t.804-3.012 2.184-2.184T6 7.997h.516q.617-1.742 1.86-3.098t2.972-2.13T15 1.997zm-2 8q.414 0 .71.297l3 3q.29.29.29.703 0 .43-.285.715T16 15q-.422 0-.71-.29L14 13.415V20q0 .414-.293.707T13 21t-.707-.293T12 20v-6.586l-1.29 1.297q-.288.29-.71.29-.414 0-.707-.293T9 14q0-.398.29-.703l3-3Q12.585 10 13 10z"/></symbol><symbol id="svg-cloud" viewBox="0 0 24 24"><path d="M15 3q1.828 0 3.496.715t2.87 1.918 1.92 2.87T24 12t-.715 3.496-1.918 2.87-2.87 1.92T15 21H6q-1.633 0-3.012-.805T.804 18.01 0 15t.804-3.013 2.184-2.184T6 8.998h.516q.617-1.742 1.86-3.098t2.972-2.13T15 3zm0 2q-1.297 0-2.496.465t-2.11 1.262-1.522 1.906T8.08 11H6q-1.655 0-2.827 1.172T2 15t1.173 2.828T6 19h9q1.423 0 2.72-.555t2.234-1.492 1.492-2.234T22 12t-.554-2.72-1.492-2.233-2.234-1.492T15 5z"/></symbol><symbol id="svg-cog" viewBox="0 0 24 24"><path d="M12 0q1.242 0 2.12.88T15 3v.516q.367.125.883.36l.36-.36q.882-.883 2.124-.883 1.234 0 2.117.883t.883 2.117q0 1.242-.883 2.125l-.36.36q.235.515.36.882H21q1.242 0 2.12.88T24 12t-.88 2.12T21 15h-.516q-.125.367-.36.883l.36.36q.883.882.883 2.124 0 1.234-.883 2.117t-2.117.883q-1.242 0-2.125-.883l-.36-.36q-.515.235-.882.36V21q0 1.242-.88 2.12T12 24t-2.12-.88T9 21v-.516q-.367-.125-.883-.36l-.36.36q-.882.883-2.116.883-1.24 0-2.12-.883t-.88-2.117q0-1.25.876-2.125l.36-.36q-.235-.515-.36-.882H3q-1.242 0-2.12-.88T0 12t.88-2.12T3 9h.516q.125-.367.36-.883l-.36-.36q-.875-.874-.875-2.124 0-1.234.88-2.117t2.12-.883q1.235 0 2.118.883l.36.36q.515-.235.882-.36V3q0-1.242.88-2.12T12 0zm0 2q-.414 0-.707.293T11 3v2.07q-1.75.25-3.195 1.32l-1.46-1.46q-.298-.298-.704-.298-.413 0-.706.293t-.293.707q0 .422.29.71l1.46 1.462Q5.32 9.25 5.07 11H3q-.413 0-.706.292T2 12t.294.706T3 13h2.07q.25 1.75 1.32 3.194l-1.46 1.46q-.29.29-.29.712 0 .414.294.707t.707.293q.407 0 .704-.297l1.46-1.462q1.446 1.07 3.196 1.32v2.07q0 .414.293.707t.707.293.707-.293.293-.707v-2.07q1.75-.25 3.195-1.32l1.46 1.46q.298.298.712.298t.707-.293.293-.707-.297-.71l-1.46-1.462Q18.68 14.75 18.93 13H21q.413 0 .706-.294T22 12t-.294-.708T21 11h-2.07q-.25-1.75-1.32-3.196l1.46-1.46q.297-.298.297-.712t-.293-.707-.707-.293-.71.297l-1.462 1.46Q14.75 5.32 13 5.07V3q0-.414-.293-.707T12 2zm0 6q1.656 0 2.828 1.172T16 12t-1.172 2.828T12 16t-2.828-1.172T8 12t1.172-2.828T12 8zm0 2q-.828 0-1.414.586T10 12t.586 1.414T12 14t1.414-.586T14 12t-.586-1.414T12 10z"/></symbol><symbol id="svg-columns" viewBox="0 0 24 24"><path d="M3 3h18q1.242 0 2.12.88T24 6v12q0 1.242-.88 2.12T21 21H3q-1.242 0-2.12-.88T0 18V6q0-1.242.88-2.12T3 3zm4 16V5H3q-.414 0-.707.293T2 6v12q0 .414.293.707T3 19h4zm8 0V5H9v14h6zm6-14h-4v14h4q.414 0 .707-.293T22 18V6q0-.414-.293-.707T21 5z"/></symbol><symbol id="svg-command" viewBox="0 0 24 24"><path d="M18 2q1.656 0 2.828 1.172T22 6t-1.172 2.828T18 10h-2v4h2q1.656 0 2.828 1.172T22 18t-1.172 2.828T18 22t-2.828-1.172T14 18v-2h-4v2q0 1.656-1.172 2.828T6 22t-2.828-1.172T2 18t1.172-2.828T6 14h2v-4H6q-1.656 0-2.828-1.172T2 6t1.172-2.828T6 2t2.828 1.172T10 6v2h4V6q0-1.656 1.172-2.828T18 2zM8 18v-2H6q-.828 0-1.414.586T4 18t.586 1.414T6 20t1.414-.586T8 18zM6 4q-.828 0-1.414.586T4 6t.586 1.414T6 8h2V6q0-.828-.586-1.414T6 4zm8 10v-4h-4v4h4zm4 2h-2v2q0 .828.586 1.414T18 20t1.414-.586T20 18t-.586-1.414T18 16zm0-12q-.828 0-1.414.586T16 6v2h2q.828 0 1.414-.586T20 6t-.586-1.414T18 4z"/></symbol><symbol id="svg-content-left" viewBox="0 0 24 24"><path d="M4 1h4q1.242 0 2.12.88T11 4v16q0 1.242-.88 2.12T8 23H4q-1.242 0-2.12-.88T1 20V4q0-1.242.88-2.12T4 1zm4 2H4q-.414 0-.707.293T3 4v16q0 .414.293.707T4 21h4q.414 0 .707-.293T9 20V4q0-.414-.293-.707T8 3zm8 10h4q1.242 0 2.12.88T23 16v4q0 1.242-.88 2.12T20 23h-4q-1.242 0-2.12-.88T13 20v-4q0-1.242.88-2.12T16 13zm4 2h-4q-.414 0-.707.293T15 16v4q0 .414.293.707T16 21h4q.414 0 .707-.293T21 20v-4q0-.414-.293-.707T20 15zM16 1h4q1.242 0 2.12.88T23 4v4q0 1.242-.88 2.12T20 11h-4q-1.242 0-2.12-.88T13 8V4q0-1.242.88-2.12T16 1zm4 2h-4q-.414 0-.707.293T15 4v4q0 .414.293.707T16 9h4q.414 0 .707-.293T21 8V4q0-.414-.293-.707T20 3z"/></symbol><symbol id="svg-content-right" viewBox="0 0 24 24"><path d="M16 1h4q1.242 0 2.12.88T23 4v16q0 1.242-.88 2.12T20 23h-4q-1.242 0-2.12-.88T13 20V4q0-1.242.88-2.12T16 1zM4 13h4q1.242 0 2.12.88T11 16v4q0 1.242-.88 2.12T8 23H4q-1.242 0-2.12-.88T1 20v-4q0-1.242.88-2.12T4 13zm4 2H4q-.414 0-.707.293T3 16v4q0 .414.293.707T4 21h4q.414 0 .707-.293T9 20v-4q0-.414-.293-.707T8 15zM4 1h4q1.242 0 2.12.88T11 4v4q0 1.242-.88 2.12T8 11H4q-1.242 0-2.12-.88T1 8V4q0-1.242.88-2.12T4 1zm4 2H4q-.414 0-.707.293T3 4v4q0 .414.293.707T4 9h4q.414 0 .707-.293T9 8V4q0-.414-.293-.707T8 3zm12 0h-4q-.414 0-.707.293T15 4v16q0 .414.293.707T16 21h4q.414 0 .707-.293T21 20V4q0-.414-.293-.707T20 3z"/></symbol><symbol id="svg-contract" viewBox="0 0 24 24"><path d="M17 1q.414 0 .707.293T18 2v3q0 .414.293.707T19 6h3q.414 0 .707.293T23 7t-.293.707T22 8h-3q-1.242 0-2.12-.88T16 5V2q0-.414.293-.707T17 1zM2 16h3q1.242 0 2.12.88T8 19v3q0 .414-.293.707T7 23t-.707-.293T6 22v-3q0-.414-.293-.707T5 18H2q-.414 0-.707-.293T1 17t.293-.707T2 16zM7 1q.414 0 .707.293T8 2v3q0 1.242-.88 2.12T5 8H2q-.414 0-.707-.293T1 7t.293-.707T2 6h3q.414 0 .707-.293T6 5V2q0-.414.293-.707T7 1zm12 15h3q.414 0 .707.293T23 17t-.293.707T22 18h-3q-.414 0-.707.293T18 19v3q0 .414-.293.707T17 23t-.707-.293T16 22v-3q0-1.242.88-2.12T19 16z"/></symbol><symbol id="svg-cross" viewBox="0 0 24 24"><path d="M19 4q.43 0 .715.285T20 5q0 .422-.29.71L13.415 12l6.297 6.29q.29.288.29.71 0 .43-.285.715T19 20q-.422 0-.71-.29L12 13.415 5.71 19.71Q5.423 20 5 20q-.43 0-.715-.285T4 19q0-.422.29-.71L10.585 12 4.29 5.71Q4 5.423 4 5q0-.43.285-.715T5 4q.422 0 .71.29L12 10.585l6.29-6.297Q18.577 4 19 4z"/></symbol><symbol id="svg-delete" viewBox="0 0 24 24"><path d="M8 3h13q1.242 0 2.12.88T24 6v12q0 1.242-.88 2.12T21 21H8l-8-9zm13 2H8.898l-6.22 7 6.22 7H21q.414 0 .707-.293T22 18V6q0-.414-.293-.707T21 5zm-2 4q0 .422-.29.71L16.415 12l2.297 2.29q.29.288.29.71 0 .43-.285.715T18 16q-.422 0-.71-.29L15 13.415l-2.29 2.297q-.288.29-.71.29-.414 0-.707-.293T11 15q0-.406.29-.71L13.585 12 11.29 9.71Q11 9.407 11 9q0-.414.293-.707T12 8q.422 0 .71.29L15 10.585l2.29-2.297Q17.577 8 18 8q.43 0 .715.285T19 9z"/></symbol><symbol id="svg-disc" viewBox="0 0 24 24"><path d="M12 1q2.242 0 4.277.87t3.508 2.345 2.344 3.508T23 12t-.87 4.277-2.345 3.508-3.508 2.344T12 23t-4.277-.87-3.508-2.345-2.344-3.508T1 12t.87-4.277 2.345-3.508T7.723 1.87 12 1zm0 2q-1.828 0-3.496.715t-2.87 1.918-1.92 2.87T3 12t.715 3.496 1.918 2.87 2.87 1.92T12 21t3.496-.715 2.87-1.918 1.92-2.87T21 12t-.715-3.496-1.918-2.87-2.87-1.92T12 3zm0 5q1.656 0 2.828 1.172T16 12t-1.172 2.828T12 16t-2.828-1.172T8 12t1.172-2.828T12 8zm0 2q-.828 0-1.414.586T10 12t.586 1.414T12 14t1.414-.586T14 12t-.586-1.414T12 10z"/></symbol><symbol id="svg-download" viewBox="0 0 24 24"><path d="M15 4h4q1.242 0 2.12.88T22 7v14q0 1.242-.88 2.12T19 24H5q-1.242 0-2.12-.88T2 21V7q0-1.242.88-2.12T5 4h4v2H5q-.414 0-.707.293T4 7v14q0 .414.293.707T5 22h14q.414 0 .707-.293T20 21V7q0-.414-.293-.707T19 6h-4V4zm-3-4q.414 0 .707.293T13 1v12.586l2.29-2.297q.288-.29.71-.29.43 0 .715.285T17 12q0 .422-.29.71l-4 4q-.288.29-.71.29t-.71-.29l-4-4Q7 12.407 7 12q0-.414.293-.707T8 11q.422 0 .71.29L11 13.585V1q0-.414.293-.707T12 0z"/></symbol><symbol id="svg-dribbble" viewBox="0 0 24 24"><path d="M11.478 8.905c-1.63-2.898-3.372-5.26-3.5-5.432-2.63 1.242-4.592 3.664-5.203 6.583.247.005 4.176.052 8.704-1.15zm1.175 3.167c.125-.04.247-.076.373-.112-.236-.536-.496-1.073-.766-1.602-4.855 1.452-9.515 1.348-9.68 1.343-.004.1-.007.2-.007.3 0 2.425.917 4.633 2.42 6.304l-.008-.008s2.58-4.577 7.668-6.223zm-6.448 7.36l.002-.004c-.07-.055-.145-.104-.214-.162l.21.166zM9.742 2.846l-.024.006.024-.006zm8.485 2.08C16.567 3.46 14.387 2.572 12 2.572c-.766 0-1.51.094-2.22.266.142.19 1.912 2.54 3.525 5.5 3.554-1.334 4.898-3.377 4.922-3.415zM12 23.04C5.904 23.04.96 18.097.96 12S5.903.96 12 .96C18.1.96 23.04 5.903 23.04 12S18.098 23.04 12 23.04zm1.604-9.498c-5.533 1.928-7.36 5.807-7.397 5.886 1.598 1.25 3.607 2 5.794 2 1.307 0 2.55-.266 3.68-.746-.14-.827-.688-3.715-2.014-7.162l-.062.022zm.424-3.8c.22.45.43.907.626 1.37.07.162.137.324.204.486 3.257-.41 6.462.286 6.566.308-.022-2.237-.82-4.29-2.143-5.894-.018.028-1.53 2.212-5.253 3.73zm1.405 3.344c1.238 3.402 1.74 6.17 1.835 6.734 2.118-1.43 3.622-3.696 4.04-6.325-.186-.06-2.827-.898-5.875-.41z"/></symbol><symbol id="svg-drop" viewBox="0 0 24 24"><path d="M5.633 7.633L12 1.266l6.367 6.367q1.297 1.297 1.965 2.953T21 14q0 1.766-.668 3.414t-1.965 2.945-2.953 1.968T12 23t-3.414-.672-2.953-1.97q-1.29-1.296-1.96-2.948T3 14t.672-3.414 1.96-2.953zm11.32 1.414L12 4.094 7.047 9.047q-1 1.008-1.523 2.297T5 14t.52 2.652 1.528 2.293 2.297 1.53T12 21q1.376 0 2.66-.524t2.294-1.53 1.527-2.29T19 14q0-1.367-.52-2.656t-1.526-2.297z"/></symbol><symbol id="svg-dropbox" viewBox="0 0 24 24"><path d="M7.33 1.082L.48 5.35l4.693 3.934L12 4.85 7.33 1.082zm8.812 18.11c-.122 0-.244-.04-.342-.124l-3.8-3.15-3.8 3.15c-.098.083-.22.126-.342.126-.102 0-.204-.028-.293-.086L4.75 17.266v1.087L12 22.918l7.25-4.566v-1.087l-2.815 1.842c-.09.06-.19.086-.293.086zM23.52 5.35l-6.85-4.267L12 4.85l6.826 4.434L23.52 5.35zM12 13.55l4.232 3.513 6.77-4.426-4.176-3.353L12 13.55zm-4.232 3.513L12 13.55 5.174 9.282.998 12.637l6.77 4.426z"/></symbol><symbol id="svg-ellipsis" viewBox="0 0 24 24"><path d="M20 9q1.242 0 2.12.88T23 12t-.88 2.12T20 15t-2.12-.88T17 12t.88-2.12T20 9zM4 9q1.242 0 2.12.88T7 12t-.88 2.12T4 15t-2.12-.88T1 12t.88-2.12T4 9zm0 2q-.414 0-.707.293T3 12t.293.707T4 13t.707-.293T5 12t-.293-.707T4 11zm8-2q1.242 0 2.12.88T15 12t-.88 2.12T12 15t-2.12-.88T9 12t.88-2.12T12 9zm0 2q-.414 0-.707.293T11 12t.293.707T12 13t.707-.293T13 12t-.293-.707T12 11zm8 0q-.414 0-.707.293T19 12t.293.707T20 13t.707-.293T21 12t-.293-.707T20 11z"/></symbol><symbol id="svg-esc" viewBox="0 0 24 24"><path d="M13.102 1.055q2.023.203 3.84 1.117t3.19 2.422q1.353 1.484 2.103 3.367Q23 9.907 23 12q0 2.242-.866 4.28-.805 1.93-2.352 3.5-1.57 1.548-3.5 2.353-2.04.867-4.28.867-2.095 0-4.04-.766-1.883-.75-3.367-2.102-1.508-1.375-2.422-3.19T1.056 13.1q-.04-.446.254-.774T2.056 12q.383 0 .668.258t.324.64q.164 1.665.91 3.15t1.988 2.608q1.21 1.117 2.75 1.72Q10.29 21 12 21q1.837 0 3.5-.703 1.58-.664 2.868-1.93 1.266-1.29 1.93-2.867Q21 13.836 21 12q0-1.71-.624-3.305-.602-1.54-1.72-2.75-1.124-1.242-2.608-1.988t-3.148-.91q-.383-.04-.64-.324T12 2.055q0-.297.114-.508t.3-.312.356-.14.332-.04zM2 1h6q.414 0 .707.293T9 2t-.293.707T8 3H4.414l8.297 8.297q.29.28.29.703 0 .43-.285.715T12 13q-.422 0-.71-.29L3 4.415V8q0 .414-.293.707T2 9t-.707-.293T1 8V2q0-.414.293-.707T2 1z"/></symbol><symbol id="svg-expand" viewBox="0 0 24 24"><path d="M17 1h3q1.242 0 2.12.88T23 4v3q0 .414-.293.707T22 8t-.707-.293T21 7V4q0-.414-.293-.707T20 3h-3q-.414 0-.707-.293T16 2t.293-.707T17 1zM2 16q.414 0 .707.293T3 17v3q0 .414.293.707T4 21h3q.414 0 .707.293T8 22t-.293.707T7 23H4q-1.242 0-2.12-.88T1 20v-3q0-.414.293-.707T2 16zM4 1h3q.414 0 .707.293T8 2t-.293.707T7 3H4q-.414 0-.707.293T3 4v3q0 .414-.293.707T2 8t-.707-.293T1 7V4q0-1.242.88-2.12T4 1zm18 15q.414 0 .707.293T23 17v3q0 1.242-.88 2.12T20 23h-3q-.414 0-.707-.293T16 22t.293-.707T17 21h3q.414 0 .707-.293T21 20v-3q0-.414.293-.707T22 16z"/></symbol><symbol id="svg-eye" viewBox="0 0 24 24"><path d="M12 3q1.633 0 3.176.496t2.707 1.29 2.19 1.753 1.728 1.92 1.212 1.755.754 1.285L24 12q-.055.117-.148.316t-.44.813-.743 1.21-1.04 1.406-1.332 1.508-1.63 1.41-1.93 1.207-2.222.814T12 21q-1.633 0-3.176-.496T6.117 19.22t-2.19-1.743-1.728-1.91T.987 13.82t-.754-1.288L0 12.04q.055-.117.148-.316t.44-.816.743-1.215T2.37 8.28t1.332-1.517 1.63-1.414 1.93-1.216 2.222-.816T12 3.002zm0 2q-1.094 0-2.148.29t-1.902.745T6.294 7.14 4.896 8.417 3.75 9.77t-.882 1.237-.617 1.03q.29.51.618 1.02t.883 1.228 1.146 1.336 1.398 1.263 1.656 1.094 1.902.738T12 19t2.148-.29 1.902-.74 1.656-1.1 1.398-1.27 1.145-1.343.882-1.234T21.75 12q-.29-.508-.618-1.023t-.883-1.234T19.103 8.4t-1.398-1.27-1.656-1.1-1.902-.74T12 5zm0 3q1.656 0 2.828 1.172T16 12t-1.172 2.828T12 16t-2.828-1.172T8 12t1.172-2.828T12 8zm0 2q-.828 0-1.414.586T10 12t.586 1.414T12 14t1.414-.586T14 12t-.586-1.414T12 10z"/></symbol><symbol id="svg-facebook" viewBox="0 0 24 24"><path d="M18 4.955h-3.427c-.406 0-.858.533-.858 1.247v2.474H18v3.528h-4.285V22.8H9.67V12.205H6v-3.53h3.67V6.6c0-2.977 2.065-5.4 4.902-5.4H18v3.755z"/></symbol><symbol id="svg-fast-forward" viewBox="0 0 24 24"><path d="M11 4q.414 0 .703.29l7 7q.297.296.297.71t-.297.71l-7 7q-.29.29-.703.29t-.707-.293T10 19q0-.422.29-.71L16.577 12l-6.29-6.29Q10 5.423 10 5q0-.43.285-.715T11 4zM5 4q.414 0 .703.29l7 7q.297.296.297.71t-.297.71l-7 7Q5.413 20 5 20t-.707-.293T4 19q0-.422.29-.71L10.577 12l-6.29-6.29Q4 5.423 4 5q0-.43.285-.715T5 4z"/></symbol><symbol id="svg-file-add" viewBox="0 0 24 24"><path d="M5 0h10l7 7v14q0 1.242-.88 2.12T19 24H5q-1.242 0-2.12-.88T2 21V3q0-1.242.88-2.12T5 0zm7 11q.414 0 .707.293T13 12v2h2q.414 0 .707.293T16 15t-.293.707T15 16h-2v2q0 .414-.293.707T12 19t-.707-.293T11 18v-2H9q-.414 0-.707-.293T8 15t.293-.707T9 14h2v-2q0-.414.293-.707T12 11zm1-2V2H5q-.422 0-.71.29T4 3v18q0 .422.29.71T5 22h14q.422 0 .71-.29T20 21V9h-7zm6.172-2L15 2.828V7h4.172z"/></symbol><symbol id="svg-file-subtract" viewBox="0 0 24 24"><path d="M5 0h10l7 7v14q0 1.242-.88 2.12T19 24H5q-1.242 0-2.12-.88T2 21V3q0-1.242.88-2.12T5 0zm4 14h6q.414 0 .707.293T16 15t-.293.707T15 16H9q-.414 0-.707-.293T8 15t.293-.707T9 14zm4-5V2H5q-.422 0-.71.29T4 3v18q0 .422.29.71T5 22h14q.422 0 .71-.29T20 21V9h-7zm6.172-2L15 2.828V7h4.172z"/></symbol><symbol id="svg-file" viewBox="0 0 24 24"><path d="M5 0h10l7 7v14q0 1.242-.88 2.12T19 24H5q-1.242 0-2.12-.88T2 21V3q0-1.242.88-2.12T5 0zm8 9V2H5q-.422 0-.71.29T4 3v18q0 .422.29.71T5 22h14q.422 0 .71-.29T20 21V9h-7zm6.172-2L15 2.828V7h4.172z"/></symbol><symbol id="svg-flag" viewBox="0 0 24 24"><path d="M7 1q.828 0 1.78.207t1.837.5l1.766.586 1.836.5L16 3q.844 0 1.664-.102t1.398-.25 1.035-.297.684-.25L21 2v14q-.078.038-.234.104t-.66.242-1.05.305-1.38.24-1.676.108q-.828 0-1.78-.207t-1.837-.5l-1.766-.585-1.836-.5L7 14.998q-1.492 0-3 .336v6.664q0 .414-.293.707T3 22.998t-.707-.293T2 21.998v-20q.078-.04.234-.105t.66-.242 1.05-.304 1.38-.238T7 .998zm0 2q-1.53 0-3 .398v9.898Q5.5 13 7 13q1.11 0 2.22.253t2.522.723q.18.063.676.23t.727.242.676.203.747.19.69.108.743.05q1.53 0 3-.397V4.704Q17.5 5 16 5q-1.11 0-2.22-.254t-2.522-.723q-.18-.063-.676-.23t-.727-.242-.676-.202-.747-.188-.69-.11T7 3z"/></symbol><symbol id="svg-folder" viewBox="0 0 24 24"><path d="M4 2h5l2 3h9q1.242 0 2.12.88T23 8v11q0 1.242-.88 2.12T20 22H4q-1.242 0-2.12-.88T1 19V5q0-1.242.88-2.12T4 2zm5.93 5L8 4H4q-.414 0-.707.293T3 5v14q0 .414.293.707T4 20h16q.414 0 .707-.293T21 19V8q0-.414-.293-.707T20 7H9.93z"/></symbol><symbol id="svg-github" viewBox="0 0 24 24"><path d="M15.816 13.572c-.862 0-1.56.967-1.56 2.16 0 1.192.698 2.16 1.56 2.16s1.56-.968 1.56-2.16c0-1.194-.7-2.16-1.56-2.16zm5.43-5.62c.18-.44.187-2.93-.76-5.312 0 0-2.174.238-5.462 2.495-.69-.19-1.858-.286-3.024-.286-1.168 0-2.334.095-3.025.285-3.287-2.257-5.46-2.495-5.46-2.495-.947 2.383-.94 4.873-.76 5.31C1.64 9.16.96 10.614.96 12.597c0 8.623 7.154 8.76 8.96 8.76l2.08.003 2.08-.003c1.806 0 8.96-.138 8.96-8.76 0-1.985-.68-3.437-1.794-4.646zm-9.212 12.346h-.066c-4.526 0-8.052-.54-8.052-4.94 0-1.053.373-2.03 1.255-2.842 1.476-1.352 3.968-.636 6.798-.636h.066c2.83 0 5.323-.716 6.797.636.883.81 1.255 1.79 1.255 2.843 0 4.398-3.523 4.938-8.05 4.938zm-3.85-6.726c-.86 0-1.56.967-1.56 2.16 0 1.192.7 2.16 1.56 2.16s1.56-.968 1.56-2.16c0-1.194-.697-2.16-1.56-2.16z"/></symbol><symbol id="svg-globe" viewBox="0 0 24 24"><path d="M12 1q.28 0 .422.008 1.453.055 2.824.48t2.535 1.145 2.138 1.73 1.648 2.2 1.055 2.58T23 12t-.38 2.854-1.054 2.582-1.648 2.2-2.137 1.73-2.534 1.144-2.824.48q-.14.008-.422.008t-.422-.008q-1.453-.055-2.824-.48T6.22 21.365t-2.138-1.73-1.648-2.2-1.055-2.58T1 11.998t.38-2.856 1.054-2.582 1.648-2.2 2.137-1.73T8.753 1.49t2.824-.48Q11.718 1 12 1zM7.04 13H3.054q.312 2.79 2.148 4.898T9.72 20.71q-1.017-1.538-1.77-3.487T7.04 13zm7.92 0H9.04q.077 1 .323 2t.55 1.77.704 1.52.72 1.234.663.93q.344-.445.664-.934t.72-1.238.702-1.52.55-1.766.325-1.996zM9.72 3.29Q7.04 3.99 5.202 6.1T3.055 11H7.04q.272-4.08 2.68-7.712zM20.944 13h-3.977q-.29 4.086-2.688 7.71 2.68-.702 4.516-2.812T20.944 13zM12 3.547q-.344.445-.66.934t-.72 1.24-.706 1.52-.55 1.765T9.038 11h5.92q-.077-1-.323-2t-.55-1.77-.704-1.52-.72-1.233-.663-.93zm2.28-.258q2.4 3.624 2.69 7.71h3.976q-.312-2.79-2.148-4.898T14.282 3.29z"/></symbol><symbol id="svg-googleplus" viewBox="0 0 24 24"><path d="M2.388 6.707c0 1.792.6 3.086 1.778 3.846.966.623 2.088.716 2.67.716.143 0 .255-.007.335-.012 0 0-.184 1.204.71 2.395h-.042c-1.547 0-6.593.323-6.593 4.47 0 4.22 4.634 4.435 5.563 4.435h.305c.596 0 2.138-.073 3.57-.77 1.86-.902 2.802-2.472 2.802-4.663 0-2.118-1.435-3.378-2.484-4.3-.64-.562-1.192-1.046-1.192-1.518 0-.48.403-.84.914-1.298.826-.74 1.606-1.793 1.606-3.782 0-1.75-.227-2.923-1.625-3.667.146-.073.66-.127.917-.163.757-.103 1.865-.22 1.865-.84V1.44H7.967c-.055 0-5.58.205-5.58 5.266zm8.908 10.815c.106 1.687-1.338 2.933-3.505 3.09-2.2.162-4.013-.83-4.12-2.516-.05-.81.306-1.603 1.003-2.236.708-.64 1.678-1.034 2.735-1.114.125-.007.248-.013.372-.013 2.036 0 3.416 1.198 3.516 2.79zM9.854 5.552c.54 1.903-.276 3.894-1.578 4.26-.15.043-.305.065-.46.065C6.62 9.877 5.438 8.67 5 7.007c-.244-.935-.225-1.75.056-2.537.276-.772.772-1.295 1.396-1.47.15-.043.306-.064.462-.064 1.44 0 2.366.598 2.94 2.615zm9.3 4.146v-3.6h-2.28v3.6h-3.6v2.28h3.6v3.6h2.28v-3.6h3.6v-2.28h-3.6z"/></symbol><symbol id="svg-grid-2" viewBox="0 0 24 24"><path d="M4 1h16q1.242 0 2.12.88T23 4v16q0 1.242-.88 2.12T20 23H4q-1.242 0-2.12-.88T1 20V4q0-1.242.88-2.12T4 1zm7 20v-8H3v7q0 .414.293.707T4 21h7zm0-10V3H4q-.414 0-.707.293T3 4v7h8zm10 9v-7h-8v8h7q.414 0 .707-.293T21 20zM20 3h-7v8h8V4q0-.414-.293-.707T20 3z"/></symbol><symbol id="svg-grid" viewBox="0 0 24 24"><path d="M16 1h4q1.242 0 2.12.88T23 4v4q0 1.242-.88 2.12T20 11h-4q-1.242 0-2.12-.88T13 8V4q0-1.242.88-2.12T16 1zM4 13h4q1.242 0 2.12.88T11 16v4q0 1.242-.88 2.12T8 23H4q-1.242 0-2.12-.88T1 20v-4q0-1.242.88-2.12T4 13zm4 2H4q-.414 0-.707.293T3 16v4q0 .414.293.707T4 21h4q.414 0 .707-.293T9 20v-4q0-.414-.293-.707T8 15zM4 1h4q1.242 0 2.12.88T11 4v4q0 1.242-.88 2.12T8 11H4q-1.242 0-2.12-.88T1 8V4q0-1.242.88-2.12T4 1zm4 2H4q-.414 0-.707.293T3 4v4q0 .414.293.707T4 9h4q.414 0 .707-.293T9 8V4q0-.414-.293-.707T8 3zm8 10h4q1.242 0 2.12.88T23 16v4q0 1.242-.88 2.12T20 23h-4q-1.242 0-2.12-.88T13 20v-4q0-1.242.88-2.12T16 13zm4 2h-4q-.414 0-.707.293T15 16v4q0 .414.293.707T16 21h4q.414 0 .707-.293T21 20v-4q0-.414-.293-.707T20 15zm0-12h-4q-.414 0-.707.293T15 4v4q0 .414.293.707T16 9h4q.414 0 .707-.293T21 8V4q0-.414-.293-.707T20 3z"/></symbol><symbol id="svg-head" viewBox="0 0 24 24"><path d="M12 0q1.633 0 3.012.805t2.184 2.184T18 6v3q0 1.25-.483 2.368t-1.352 1.945q2.28.36 4.055 1.06t2.777 1.65T24 18.034V20q0 1.243-.878 2.122t-2.12.88H3q-1.243 0-2.122-.88T0 20.002v-1.978q0-1.055 1.005-2.008t2.773-1.652 4.05-1.05q-.858-.837-1.343-1.95T6 9V6q0-1.632.806-3.01T8.99.804 12.002 0zm0 15q-2.172 0-4.19.348t-3.52.973q-.603.25-1.075.532t-.72.508-.37.395-.125.27v1.977q0 .414.293.707T3 21h18q.414 0 .707-.293T22 20v-1.97q0-.1-.125-.27t-.37-.394-.72-.508-1.074-.54q-1.5-.624-3.52-.972T12 15zm0-13q-1.656 0-2.828 1.172T8 6v3q0 1.656 1.172 2.828T12 13t2.828-1.172T16 9V6q0-1.656-1.172-2.828T12 2z"/></symbol><symbol id="svg-heart" viewBox="0 0 24 24"><path d="M17.656 2q1.633 0 3.012.805t2.184 2.184.805 3.01q0 1.173-.45 2.278T21.9 12.243L12 22.14l-9.897-9.897q-.86-.86-1.31-1.965T.346 8q0-1.632.805-3.01t2.184-2.185T6.346 2q1.18 0 2.277.445t1.965 1.313l1.414 1.414 1.414-1.414q.86-.86 1.965-1.31T17.66 2zm0 2q-.78 0-1.516.297t-1.312.875L12 8 9.172 5.172q-.578-.578-1.313-.875T6.342 4Q5.25 4 4.33 4.535T2.88 5.988 2.343 8q0 .78.297 1.516t.875 1.313L12 19.312l8.483-8.484q.578-.58.875-1.314T21.655 8q0-1.094-.535-2.012t-1.453-1.453T17.655 4z"/></symbol><symbol id="svg-help" viewBox="0 0 24 24"><path d="M12 1q2.156 0 4.18.82t3.602 2.398T22.18 7.82 23 12t-.82 4.18-2.398 3.602-3.602 2.398T12 23t-4.18-.82-3.602-2.398T1.82 16.18 1 12t.82-4.18 2.398-3.602T7.82 1.82 12 1zM7.828 9.242l-2.86-2.86Q4 7.595 3.5 9.04T3 12t.5 2.96 1.47 2.657l2.858-2.86Q7 13.508 7 12t.828-2.758zm9.79 9.79l-2.86-2.86Q13.508 17 12 17t-2.758-.828l-2.86 2.86Q7.595 20 9.04 20.5T12 21t2.96-.5 2.657-1.47zM12 9q-1.242 0-2.12.88T9 12t.88 2.12T12 15t2.12-.88T15 12t-.88-2.12T12 9zm0-6q-1.516 0-2.96.5T6.382 4.97l2.86 2.858Q10.492 7 12 7t2.758.828l2.86-2.86Q16.405 4 14.96 3.5T12 3zm7.03 3.383l-2.858 2.86Q17 10.492 17 12t-.828 2.758l2.86 2.86Q20 16.405 20.5 14.96T21 12t-.5-2.96-1.47-2.657z"/></symbol><symbol id="svg-image" viewBox="0 0 24 24"><path d="M4 1h16q1.242 0 2.12.88T23 4v16q0 1.242-.88 2.12T20 23H4q-1.242 0-2.12-.88T1 20V4q0-1.242.88-2.12T4 1zm17 16.414l-5-5L7.414 21H20q.414 0 .707-.293T21 20v-2.586zM20 3H4q-.414 0-.707.293T3 4v16q0 .414.293.707T4 21h.586L16 9.586l5 5V4q0-.414-.293-.707T20 3zM8 5q1.242 0 2.12.88T11 8t-.88 2.12T8 11t-2.12-.88T5 8t.88-2.12T8 5zm0 2q-.414 0-.707.293T7 8t.293.707T8 9t.707-.293T9 8t-.293-.707T8 7z"/></symbol><symbol id="svg-inbox" viewBox="0 0 24 24"><path d="M12 1q.414 0 .707.293T13 2v11.586l3.29-3.297q.288-.29.71-.29.43 0 .715.285T18 11q0 .422-.29.71l-5 5q-.288.29-.71.29t-.71-.29l-5-5Q6 11.407 6 11q0-.414.293-.707T7 10q.422 0 .71.29L11 13.585V2q0-.414.293-.707T12 1zm10 14q.414 0 .707.293T23 16v4q0 1.25-.867 2.117-.883.883-2.11.883H4.002q-1.226 0-2.124-.875Q1 21.227 1 20v-4q0-.414.294-.707T2 15t.708.293T3 16v4q0 .414.294.707T4 21h16.024q.406 0 .69-.293T21 20v-4q0-.414.293-.707T22 15z"/></symbol><symbol id="svg-instagram" viewBox="0 0 24 24"><path d="M18.24 12c0 3.446-2.795 6.24-6.24 6.24-3.446 0-6.24-2.794-6.24-6.24 0-.41.04-.81.118-1.2H1.68v8.294c0 1.78 1.442 3.226 3.226 3.226h14.19c1.78 0 3.225-1.444 3.225-3.226V10.8h-4.195c.076.39.116.79.116 1.2zm.854-10.32H4.904c-1.78 0-3.225 1.445-3.225 3.226V8.4h5.224C8.034 6.804 9.894 5.76 12 5.76s3.965 1.044 5.094 2.64h5.225V4.906c0-1.78-1.446-3.226-3.227-3.226zm1.578 3.984c0 .318-.26.576-.576.576H18.37c-.318 0-.577-.26-.577-.576V3.936c0-.318.26-.576.576-.576h1.726c.318 0 .576.26.576.576v1.728zM15.84 12c0-2.122-1.72-3.84-3.84-3.84S8.16 9.878 8.16 12s1.72 3.84 3.84 3.84 3.84-1.718 3.84-3.84z"/></symbol><symbol id="svg-layers" viewBox="0 0 24 24"><path d="M0 7l12-6 12 6-12 6zm12 12.258l9.75-4.883L24 15.5l-12 6.008L0 15.5l2.25-1.125zm0-4.25l9.75-4.875L24 11.258l-12 6-12-6 2.25-1.125zM19.53 7L12 3.234 4.47 7 12 10.766z"/></symbol><symbol id="svg-layout" viewBox="0 0 24 24"><path d="M4 1h16q1.242 0 2.12.88T23 4v16q0 1.242-.88 2.12T20 23H4q-1.242 0-2.12-.88T1 20V4q0-1.242.88-2.12T4 1zm4 20V9H3v11q0 .414.293.707T4 21h4zm13-1V9H10v12h10q.414 0 .707-.293T21 20zM20 3H4q-.414 0-.707.293T3 4v3h18V4q0-.414-.293-.707T20 3z"/></symbol><symbol id="svg-link" viewBox="0 0 24 24"><path d="M17 1q1.18 0 2.277.445t1.965 1.312 1.313 1.965T23 7q0 1.17-.45 2.276t-1.308 1.965l-3 3q-.086.087-.258.243-.836.742-1.867 1.13T14 15.998q-1.367 0-2.586-.587-.914-.43-1.656-1.172t-1.172-1.655Q9.172 12 10 12q.29 0 .586.085.508.82 1.328 1.328Q12.874 14 14 14q.78 0 1.516-.298t1.313-.875l3-3q.577-.578.874-1.313T21 6.998t-.296-1.516-.875-1.313-1.314-.876T17 2.997t-1.516.297-1.313.875l-2.1 2.1Q11.07 6 10 6q-.173 0-.485.016.156-.172.242-.258l3-3q.86-.86 1.965-1.31T17 1zm-7 7q1.367 0 2.586.586.914.43 1.656 1.172t1.172 1.656Q14.828 12 14 12q-.29 0-.586-.086-.508-.82-1.328-1.328Q11.126 10 10 10q-.78 0-1.516.297t-1.313.875l-3 3q-.577.578-.874 1.313T3 17t.296 1.517.875 1.313 1.314.875T7 21.002t1.516-.297 1.313-.875l2.1-2.102Q12.93 18 14 18q.173 0 .485-.015-.156.172-.242.258l-3 3q-.867.867-1.965 1.313T7 23q-1.17 0-2.276-.448t-1.965-1.31q-.868-.866-1.314-1.964T1 17t.446-2.276T2.76 12.76l3-3q.085-.087.257-.243.836-.742 1.867-1.13T10 8.002z"/></symbol><symbol id="svg-linkedin" viewBox="0 0 24 24"><path d="M6.09 3.66c0 1.276-.94 2.31-2.49 2.31-1.458 0-2.4-1.034-2.4-2.31 0-1.306.973-2.31 2.46-2.31s2.4 1.004 2.43 2.31zM1.323 22.65V7.792H5.94V22.65H1.322zM8.704 12.53c0-1.853-.06-3.402-.122-4.74h4.01l.214 2.067h.09c.608-.974 2.097-2.4 4.59-2.4 3.036 0 5.315 2.034 5.315 6.41v8.78h-4.617v-8.234c0-1.914-.67-3.22-2.34-3.22-1.276 0-2.034.88-2.37 1.73-.12.305-.15.73-.15 1.155v8.57h-4.62V12.53z"/></symbol><symbol id="svg-loader" viewBox="0 0 24 24"><path d="M16.25 15.242q.406 0 .703.297l2.828 2.827q.298.297.298.71 0 .407-.297.704t-.702.298q-.414 0-.71-.297l-2.83-2.827q-.288-.29-.288-.71 0-.415.293-.708t.707-.293zm-8.492 0q.414 0 .707.293t.293.707-.297.71l-2.827 2.83q-.297.296-.703.296-.414 0-.707-.293t-.293-.707q0-.422.29-.71l2.827-2.83q.297-.296.71-.296zM2 11h4q.414 0 .707.293T7 12t-.293.707T6 13H2q-.414 0-.707-.293T1 12t.293-.707T2 11zm10 6q.414 0 .707.293T13 18v4q0 .414-.293.707T12 23t-.707-.293T11 22v-4q0-.414.293-.707T12 17zM4.93 3.922q.406 0 .703.297L8.46 7.046q.298.297.298.703 0 .414-.293.707t-.707.293q-.422 0-.71-.29l-2.83-2.827q-.288-.29-.288-.71 0-.415.293-.708t.707-.293zM18 11h4q.414 0 .707.293T23 12t-.293.707T22 13h-4q-.414 0-.707-.293T17 12t.293-.707T18 11zM12 1q.414 0 .707.293T13 2v4q0 .414-.293.707T12 7t-.707-.293T11 6V2q0-.414.293-.707T12 1zm7.078 2.922q.406 0 .703.297t.298.702q0 .414-.297.71l-2.827 2.83q-.29.288-.703.288-.43 0-.715-.285t-.285-.715q0-.414.29-.703l2.827-2.828q.297-.298.71-.298z"/></symbol><symbol id="svg-location-2" viewBox="0 0 24 24"><path d="M12 1q2.242 0 4.277.87t3.508 2.345 2.344 3.508T23 12t-.87 4.277-2.345 3.508-3.508 2.344T12 23t-4.277-.87-3.508-2.345-2.344-3.508T1 12t.87-4.277 2.345-3.508T7.723 1.87 12 1zm1 2.055V6q0 .414-.293.707T12 7t-.707-.293T11 6V3.055q-1.547.172-2.934.852T5.632 5.634 3.905 8.068t-.852 2.934h2.945q.414 0 .707.293t.293.707-.293.707-.707.292H3.053q.172 1.547.852 2.934t1.727 2.434 2.434 1.727T11 20.95v-2.946q0-.414.293-.707t.707-.293.707.293.293.707v2.945q1.547-.173 2.934-.853t2.434-1.727 1.727-2.434.852-2.934h-2.945q-.414 0-.707-.293T17.002 12t.293-.707.707-.293h2.945q-.172-1.547-.852-2.934t-1.727-2.434-2.434-1.727T13 3.055z"/></symbol><symbol id="svg-location" viewBox="0 0 24 24"><path d="M0 11L24 0 13 24l-3-10zm13.39 7.344l6.548-14.28-14.28 6.546 5.952 1.78z"/></symbol><symbol id="svg-lock" viewBox="0 0 24 24"><path d="M12 1q1.633 0 3.012.805t2.184 2.184T18 7v4h2q1.243 0 2.122.88t.88 2.12v6q0 1.243-.88 2.122t-2.12.88H4q-1.243 0-2.122-.88T1 20.002v-6q0-1.243.88-2.122T4 11h2V7q0-1.632.806-3.01T8.99 1.804 12.002 1zm8 12H4q-.414 0-.707.293T3 14v6q0 .414.293.707T4 21h16q.414 0 .707-.293T21 20v-6q0-.414-.293-.707T20 13zM12 3q-1.656 0-2.828 1.172T8 7v4h8V7q0-1.656-1.172-2.828T12 3z"/></symbol><symbol id="svg-mail" viewBox="0 0 24 24"><path d="M4 3h16q1.242 0 2.12.88T23 6v12q0 1.242-.88 2.12T20 21H4q-1.242 0-2.12-.88T1 18V6q0-1.242.88-2.12T4 3zm17 15V7.078l-8.375 6.703Q12.36 14 12 14t-.625-.22L3 7.08V18q0 .414.293.707T4 19h16q.414 0 .707-.293T21 18zM20 5H4q-.148 0-.328.055L12 11.72l8.328-6.665Q20.148 5 20 5z"/></symbol><symbol id="svg-map" viewBox="0 0 24 24"><path d="M16 5l8-5v19l-8 5-8-5-8 5V5l8-5zM7 17.266V2.993L2 6.118V20.39zm8-10.532L9 2.976v14.29l6 3.75V6.733zm7 11.157V3.61l-5 3.125v14.28z"/></symbol><symbol id="svg-marquee-minus" viewBox="0 0 24 24"><path d="M18 1h2q1.242 0 2.12.88T23 4v2q0 .414-.293.707T22 7t-.707-.293T21 6V4q0-.414-.293-.707T20 3h-2q-.414 0-.707-.293T17 2t.293-.707T18 1zM2 17q.414 0 .707.293T3 18v2q0 .414.293.707T4 21h2q.414 0 .707.293T7 22t-.293.707T6 23H4q-1.242 0-2.12-.88T1 20v-2q0-.414.293-.707T2 17zm0-8q.414 0 .707.293T3 10v4q0 .414-.293.707T2 15t-.707-.293T1 14v-4q0-.414.293-.707T2 9zm8 12h4q.414 0 .707.293T15 22t-.293.707T14 23h-4q-.414 0-.707-.293T9 22t.293-.707T10 21zM4 1h2q.414 0 .707.293T7 2t-.293.707T6 3H4q-.414 0-.707.293T3 4v2q0 .414-.293.707T2 7t-.707-.293T1 6V4q0-1.242.88-2.12T4 1zm18 16q.414 0 .707.293T23 18v2q0 1.242-.88 2.12T20 23h-2q-.414 0-.707-.293T17 22t.293-.707T18 21h2q.414 0 .707-.293T21 20v-2q0-.414.293-.707T22 17zM8 11h8q.414 0 .707.293T17 12t-.293.707T16 13H8q-.414 0-.707-.293T7 12t.293-.707T8 11zm14-2q.414 0 .707.293T23 10v4q0 .414-.293.707T22 15t-.707-.293T21 14v-4q0-.414.293-.707T22 9zM10 1h4q.414 0 .707.293T15 2t-.293.707T14 3h-4q-.414 0-.707-.293T9 2t.293-.707T10 1z"/></symbol><symbol id="svg-marquee-plus" viewBox="0 0 24 24"><path d="M12 7q.414 0 .707.293T13 8v3h3q.414 0 .707.293T17 12t-.293.707T16 13h-3v3q0 .414-.293.707T12 17t-.707-.293T11 16v-3H8q-.414 0-.707-.293T7 12t.293-.707T8 11h3V8q0-.414.293-.707T12 7zM2 17q.414 0 .707.293T3 18v2q0 .414.293.707T4 21h2q.414 0 .707.293T7 22t-.293.707T6 23H4q-1.242 0-2.12-.88T1 20v-2q0-.414.293-.707T2 17zm0-8q.414 0 .707.293T3 10v4q0 .414-.293.707T2 15t-.707-.293T1 14v-4q0-.414.293-.707T2 9zm8 12h4q.414 0 .707.293T15 22t-.293.707T14 23h-4q-.414 0-.707-.293T9 22t.293-.707T10 21zM4 1h2q.414 0 .707.293T7 2t-.293.707T6 3H4q-.414 0-.707.293T3 4v2q0 .414-.293.707T2 7t-.707-.293T1 6V4q0-1.242.88-2.12T4 1zm18 16q.414 0 .707.293T23 18v2q0 1.242-.88 2.12T20 23h-2q-.414 0-.707-.293T17 22t.293-.707T18 21h2q.414 0 .707-.293T21 20v-2q0-.414.293-.707T22 17zm0-8q.414 0 .707.293T23 10v4q0 .414-.293.707T22 15t-.707-.293T21 14v-4q0-.414.293-.707T22 9zM10 1h4q.414 0 .707.293T15 2t-.293.707T14 3h-4q-.414 0-.707-.293T9 2t.293-.707T10 1zm8 0h2q1.242 0 2.12.88T23 4v2q0 .414-.293.707T22 7t-.707-.293T21 6V4q0-.414-.293-.707T20 3h-2q-.414 0-.707-.293T17 2t.293-.707T18 1z"/></symbol><symbol id="svg-marquee" viewBox="0 0 24 24"><path d="M18 1h2q1.242 0 2.12.88T23 4v2q0 .414-.293.707T22 7t-.707-.293T21 6V4q0-.414-.293-.707T20 3h-2q-.414 0-.707-.293T17 2t.293-.707T18 1zM2 17q.414 0 .707.293T3 18v2q0 .414.293.707T4 21h2q.414 0 .707.293T7 22t-.293.707T6 23H4q-1.242 0-2.12-.88T1 20v-2q0-.414.293-.707T2 17zm0-8q.414 0 .707.293T3 10v4q0 .414-.293.707T2 15t-.707-.293T1 14v-4q0-.414.293-.707T2 9zm8 12h4q.414 0 .707.293T15 22t-.293.707T14 23h-4q-.414 0-.707-.293T9 22t.293-.707T10 21zM4 1h2q.414 0 .707.293T7 2t-.293.707T6 3H4q-.414 0-.707.293T3 4v2q0 .414-.293.707T2 7t-.707-.293T1 6V4q0-1.242.88-2.12T4 1zm18 16q.414 0 .707.293T23 18v2q0 1.242-.88 2.12T20 23h-2q-.414 0-.707-.293T17 22t.293-.707T18 21h2q.414 0 .707-.293T21 20v-2q0-.414.293-.707T22 17zm0-8q.414 0 .707.293T23 10v4q0 .414-.293.707T22 15t-.707-.293T21 14v-4q0-.414.293-.707T22 9zM10 1h4q.414 0 .707.293T15 2t-.293.707T14 3h-4q-.414 0-.707-.293T9 2t.293-.707T10 1z"/></symbol><symbol id="svg-maximize" viewBox="0 0 24 24"><path d="M14 12.992q.414 0 .71.297L21 19.577v-4.586q0-.414.293-.707t.707-.293.707.293.293.707v7q0 .414-.297.71t-.71.298h-7q-.415 0-.708-.293T13.992 22t.293-.707.707-.293h4.586l-6.29-6.29Q13 14.407 13 14q0-.414.293-.71T14 12.99zM2 1h7q.414 0 .707.293T10 2t-.293.707T9 3H4.414l6.29 6.28q.296.298.296.712t-.297.707-.71.292q-.4 0-.712-.29L3 4.415V9q0 .414-.293.707T2 10t-.707-.293T1 9V2q0-.414.293-.707T2 1z"/></symbol><symbol id="svg-menu" viewBox="0 0 24 24"><path d="M3 5h18q.414 0 .707.293T22 6t-.293.707T21 7H3q-.414 0-.707-.293T2 6t.293-.707T3 5zm0 12h18q.414 0 .707.293T22 18t-.293.707T21 19H3q-.414 0-.707-.293T2 18t.293-.707T3 17zm0-6h18q.414 0 .707.293T22 12t-.293.707T21 13H3q-.414 0-.707-.293T2 12t.293-.707T3 11z"/></symbol><symbol id="svg-microphone" viewBox="0 0 24 24"><path d="M19 9q.414 0 .707.293T20 10v2q0 1.5-.543 2.887t-1.477 2.43-2.227 1.742-2.754.878V22h3q.413 0 .706.294T17 23t-.294.708T16 24H8q-.415 0-.708-.292T7 23t.292-.706T8 22h3V19.94q-1.462-.18-2.755-.88t-2.227-1.74-1.477-2.43T4 12v-2q0-.414.293-.707T5 9t.707.293.293.707v2q0 1.633.805 3.012t2.184 2.184T12 18t3.01-.804 2.185-2.184T18 12v-2q0-.414.293-.707T19 9zm-7-9q1.656 0 2.828 1.172T16 4v8q0 1.656-1.172 2.828T12 16t-2.828-1.172T8 12V4q0-1.656 1.172-2.828T12 0zm0 2q-.828 0-1.414.586T10 4v8q0 .828.586 1.414T12 14t1.414-.586T14 12V4q0-.828-.586-1.414T12 2z"/></symbol><symbol id="svg-minimize" viewBox="0 0 24 24"><path d="M2 1q.422 0 .71.29L9 7.577V2.992q0-.414.293-.707T10 1.992t.707.293.293.707v7q0 .414-.297.71t-.71.298h-7q-.415 0-.708-.293T1.992 10t.293-.707T2.992 9h4.586l-6.29-6.29Q1 2.423 1 2q0-.43.285-.715T2 1zm12.008 12h7q.414 0 .707.293t.293.707-.293.707-.707.293h-4.586l6.28 6.29q.298.296.298.71t-.293.707T22 23q-.422 0-.71-.29L15 16.423v4.586q0 .414-.293.707t-.707.293-.707-.293-.293-.707v-7q0-.414.297-.71t.71-.298z"/></symbol><symbol id="svg-minus" viewBox="0 0 24 24"><path d="M3 11h18q.414 0 .707.293T22 12t-.293.707T21 13H3q-.414 0-.707-.293T2 12t.293-.707T3 11z"/></symbol><symbol id="svg-monitor" viewBox="0 0 24 24"><path d="M4 2h16q1.242 0 2.12.88T23 5v10q0 1.242-.88 2.12T20 18h-7v2h3q.414 0 .707.293T17 21t-.293.707T16 22H8q-.414 0-.707-.293T7 21t.293-.707T8 20h3v-2H4q-1.242 0-2.12-.88T1 15V5q0-1.242.88-2.12T4 2zm16 2H4q-.414 0-.707.293T3 5v10q0 .414.293.707T4 16h16q.414 0 .707-.293T21 15V5q0-.414-.293-.707T20 4z"/></symbol><symbol id="svg-moon" viewBox="0 0 24 24"><path d="M12 2q.336 0 .664.023Q12 3.453 12 5q0 1.422.555 2.72t1.492 2.233 2.234 1.492T19 12q1.547 0 2.977-.664.023.328.023.664 0 1.36-.36 2.656t-1.003 2.395-1.566 2.02-2.02 1.567-2.394 1.004T12 22t-2.656-.36-2.395-1.003-2.02-1.566-1.567-2.02-1.004-2.394T2 12t.36-2.656T3.362 6.95 4.93 4.93t2.02-1.567T9.343 2.36 12 2zm-1.97 2.242q-1.288.328-2.4 1.062T5.714 7.046 4.457 9.34 4 12q0 1.624.633 3.104T6.34 17.66t2.555 1.706T12 20q1.375 0 2.66-.458t2.293-1.258 1.742-1.914 1.062-2.402q-.336.03-.758.03-1.83 0-3.493-.714t-2.87-1.922-1.923-2.87T10 4.998q0-.423.03-.76z"/></symbol><symbol id="svg-move" viewBox="0 0 24 24"><path d="M12 0q.422 0 .71.29l3.532 3.538q.297.297.297.71t-.294.708-.707.293-.712-.298L13 3.414V11h7.586l-1.828-1.828q-.297-.297-.297-.71t.294-.708.707-.293.712.298l3.54 3.53Q24 11.58 24 12t-.29.703l-3.538 3.54q-.297.296-.71.296t-.708-.294-.293-.707.298-.712L20.586 13H13v7.586l1.828-1.828q.297-.297.71-.297t.708.294.293.707-.298.712l-3.53 3.54Q12.42 24 12 24q-.414 0-.703-.29l-3.54-3.538q-.296-.297-.296-.71t.294-.708.707-.293.712.298L11 20.586V13H3.414l1.828 1.828q.297.297.297.71t-.294.708-.707.293-.712-.298l-3.54-3.53Q0 12.42 0 12t.29-.71l3.538-3.532q.297-.297.71-.297t.708.294.293.707-.298.712L3.414 11H11V3.414L9.172 5.242q-.297.297-.71.297t-.708-.294-.293-.707.298-.712l3.53-3.54Q11.58 0 12 0z"/></symbol><symbol id="svg-mute" viewBox="0 0 24 24"><path d="M6 8l5-5v18l-5-5H4q-1.242 0-2.12-.88T1 13v-1.96q0-1.243.88-2.142T4 8h2zm3 8.172V7.79L6.828 10H4q-.406 0-.703.31T3 11.04V13q0 .414.293.707T4 14h2.828zM21 8q.43 0 .715.285T22 9q0 .422-.29.71L19.415 12l2.297 2.29q.29.288.29.71 0 .43-.285.715T21 16q-.422 0-.71-.29L18 13.415l-2.29 2.297q-.288.29-.71.29-.43 0-.715-.285T14 15q0-.422.29-.71L16.585 12 14.29 9.71Q14 9.423 14 9q0-.43.285-.715T15 8q.422 0 .71.29L18 10.585l2.29-2.297Q20.577 8 21 8z"/></symbol><symbol id="svg-open" viewBox="0 0 24 24"><path d="M4 1h7q.414 0 .707.293T12 2t-.293.707T11 3H4q-.414 0-.707.293T3 4v16q0 .414.293.707T4 21h16q.414 0 .707-.293T21 20v-7q0-.414.293-.707T22 12t.707.293T23 13v7q0 1.242-.88 2.12T20 23H4q-1.242 0-2.12-.88T1 20V4q0-1.242.88-2.12T4 1zm12 0h6q.414 0 .707.293T23 2v6q0 .414-.293.707T22 9t-.707-.293T21 8V4.414l-8.297 8.297q-.29.29-.703.29-.43 0-.715-.285T11 12q0-.414.29-.703L19.585 3H16q-.414 0-.707-.293T15 2t.293-.707T16 1z"/></symbol><symbol id="svg-outbox" viewBox="0 0 24 24"><path d="M12 1.047q.422 0 .71.29l5 5q.29.288.29.71 0 .43-.285.715T17 8.047q-.422 0-.71-.29L13 4.462v11.587q0 .414-.293.707t-.707.293-.707-.293-.293-.707V4.46L7.71 7.76q-.304.29-.71.29-.414 0-.707-.294T6 7.047q0-.406.29-.71l5-5q.288-.29.71-.29zm10 14q.414 0 .707.293t.293.707v4q0 1.25-.867 2.117-.883.883-2.11.883H4.002q-1.226 0-2.124-.875Q1 21.274 1 20.047v-4q0-.414.294-.707T2 15.047t.708.293.293.707v4q0 .414.294.707t.707.293h16.024q.406 0 .69-.293t.286-.707v-4q0-.414.293-.707t.707-.293z"/></symbol><symbol id="svg-paper-clip" viewBox="0 0 24 24"><path d="M15.797 0q.977 0 1.875.367.938.375 1.656 1.094.727.735 1.094 1.65.36.882.36 1.874t-.36 1.875q-.367.913-1.094 1.647l-9.203 9.203q-.422.422-1 .664-.563.22-1.125.22t-1.125-.22q-.578-.242-1-.664-.438-.438-.656-.992-.22-.53-.22-1.125 0-.602.22-1.133.218-.547.655-.992l8.492-8.484q.297-.297.71-.297.407 0 .704.297t.298.703q0 .414-.297.71l-8.49 8.485q-.29.29-.29.71 0 .415.29.704.31.297.71.297t.71-.297l9.204-9.203q.867-.867.867-2.11t-.866-2.108Q17.024 2 15.797 2q-1.234 0-2.11.875l-9.226 9.18q-.718.72-1.093 1.656Q3 14.61 3 15.595q0 .97.367 1.883.375.93 1.094 1.648.743.734 1.657 1.102T8 20.594t1.883-.367 1.656-1.102l9.186-9.188q.297-.297.71-.297.407 0 .704.297t.297.703q0 .414-.297.71l-9.188 9.19q-1.008 1.007-2.32 1.538-1.25.516-2.633.516-1.376 0-2.634-.516-1.313-.53-2.32-1.54-1-1-1.53-2.312-.517-1.266-.517-2.633 0-1.375.515-2.633.523-1.297 1.53-2.32h.01l9.218-9.18q.72-.72 1.648-1.094Q14.836 0 15.797 0z"/></symbol><symbol id="svg-paper-stack" viewBox="0 0 24 24"><path d="M9 0h10q1.242 0 2.12.88T22 3v14q0 1.242-.88 2.12T19 20H9q-1.242 0-2.12-.88T6 17V3q0-1.242.88-2.12T9 0zM4 4.172V21q0 .414.293.707T5 22h12.828q-.312.883-1.086 1.44T15 24H5q-1.242 0-2.12-.88T2 21V7q0-.97.56-1.742T4 4.172zM19 2H9q-.414 0-.707.293T8 3v14q0 .414.293.707T9 18h10q.414 0 .707-.293T20 17V3q0-.414-.293-.707T19 2z"/></symbol><symbol id="svg-paper" viewBox="0 0 24 24"><path d="M5 0h14q1.242 0 2.12.88T22 3v18q0 1.242-.88 2.12T19 24H5q-1.242 0-2.12-.88T2 21V3q0-1.242.88-2.12T5 0zm3 17h8q.414 0 .707.293T17 18t-.293.707T16 19H8q-.414 0-.707-.293T7 18t.293-.707T8 17zm0-4h8q.414 0 .707.293T17 14t-.293.707T16 15H8q-.414 0-.707-.293T7 14t.293-.707T8 13zM19 2H5q-.414 0-.707.293T4 3v18q0 .414.293.707T5 22h14q.414 0 .707-.293T20 21V3q0-.414-.293-.707T19 2zM8 9h8q.414 0 .707.293T17 10t-.293.707T16 11H8q-.414 0-.707-.293T7 10t.293-.707T8 9zm0-4h4q.414 0 .707.293T13 6t-.293.707T12 7H8q-.414 0-.707-.293T7 6t.293-.707T8 5z"/></symbol><symbol id="svg-paragraph" viewBox="0 0 24 24"><path d="M10 1h9q.414 0 .707.293T20 2v20q0 .414-.293.707T19 23t-.707-.293T18 22V3h-2v19q0 .414-.293.707T15 23t-.707-.293T14 22v-9h-4q-1.633 0-3.012-.805T4.804 10.01 4 7t.804-3.013 2.184-2.184T10 .998zm4 10V3h-4Q8.344 3 7.172 4.172T6 7t1.172 2.828T10 11h4z"/></symbol><symbol id="svg-pause" viewBox="0 0 24 24"><path d="M16 3q1.242 0 2.12.88T19 6v12q0 1.242-.88 2.12T16 21t-2.12-.88T13 18V6q0-1.242.88-2.12T16 3zM8 3q1.242 0 2.12.88T11 6v12q0 1.242-.88 2.12T8 21t-2.12-.88T5 18V6q0-1.242.88-2.12T8 3zm0 2q-.414 0-.707.293T7 6v12q0 .414.293.707T8 19t.707-.293T9 18V6q0-.414-.293-.707T8 5zm8 0q-.414 0-.707.293T15 6v12q0 .414.293.707T16 19t.707-.293T17 18V6q0-.414-.293-.707T16 5z"/></symbol><symbol id="svg-paypal" viewBox="0 0 24 24"><path d="M20.226 5.802c.326.617.488 1.38.488 2.294 0 2.078-.876 3.756-2.626 5.03-1.752 1.273-4.2 1.91-7.342 1.91h-.736c-.553 0-1.106.433-1.23.965l-.883 3.768c-.124.533-.677.968-1.23.968h-1.61l-.144.616c-.125.532.226.967.778.967h2.58c.553 0 1.108-.435 1.23-.968l.883-3.768c.125-.53.677-.965 1.23-.965h.736c3.142 0 5.59-.637 7.34-1.913 1.752-1.272 2.63-2.948 2.63-5.03 0-.915-.163-1.677-.49-2.292-.324-.612-.798-1.11-1.416-1.492-.066-.04-.12-.055-.188-.092zM6.292 18.185l.884-3.768c.125-.53.676-.965 1.23-.965h.736c3.143 0 5.59-.636 7.34-1.912 1.75-1.273 2.627-2.95 2.627-5.03 0-.915-.163-1.677-.49-2.292-.326-.612-.8-1.11-1.417-1.492-.632-.386-1.375-.655-2.236-.812-.86-.155-1.87-.234-3.03-.234h-5.37c-.553 0-1.107.432-1.23.965l-3.632 15.54c-.125.532.226.967.778.967h2.58c.553 0 1.108-.434 1.23-.967zM8.4 9.17l.774-3.3c.125-.532.678-.966 1.23-.966h.844c.983 0 1.73.166 2.228.494.5.326.75.83.75 1.512 0 1.03-.39 1.828-1.163 2.387-.775.558-1.853.84-3.245.84H9.18c-.554 0-.904-.437-.78-.968z"/></symbol><symbol id="svg-pie-graph" viewBox="0 0 24 24"><path d="M12 1q2.242 0 4.277.87t3.508 2.345 2.344 3.508T23 12t-.87 4.277-2.345 3.508-3.508 2.344T12 23t-4.277-.87-3.508-2.345-2.344-3.508T1 12t.87-4.277 2.345-3.508T7.723 1.87 12 1zm-1 12V3.055q-1.664.188-3.145.965T5.308 5.977 3.62 8.727 3 12q0 1.828.714 3.496t1.918 2.87 2.87 1.92T12 21q1.702 0 3.272-.62t2.75-1.69 1.957-2.546.964-3.145H11zm2-9.945V11h7.945q-.172-1.547-.852-2.934t-1.727-2.434-2.434-1.727-2.934-.852z"/></symbol><symbol id="svg-pinterest" viewBox="0 0 24 24"><path d="M10.34 15.874c-.63 3.304-1.4 6.472-3.68 8.126-.703-4.994 1.033-8.744 1.84-12.726-1.375-2.316.166-6.974 3.067-5.826 3.57 1.412-3.09 8.608 1.38 9.506 4.67.938 6.575-8.1 3.68-11.04C12.444-.33 4.45 3.818 5.433 9.893c.24 1.486 1.774 1.937.613 3.986-2.677-.593-3.476-2.705-3.373-5.52C2.84 3.75 6.813.526 10.8.078c5.04-.564 9.773 1.85 10.425 6.594.736 5.352-2.274 11.15-7.667 10.732-1.46-.112-2.074-.835-3.22-1.53z"/></symbol><symbol id="svg-play" viewBox="0 0 24 24"><path d="M4 21V3l15 9zm11.11-9L6 6.53v10.94z"/></symbol><symbol id="svg-plus" viewBox="0 0 24 24"><path d="M12 2q.414 0 .707.293T13 3v8h8q.414 0 .707.293T22 12t-.293.707T21 13h-8v8q0 .414-.293.707T12 22t-.707-.293T11 21v-8H3q-.414 0-.707-.293T2 12t.293-.707T3 11h8V3q0-.414.293-.707T12 2z"/></symbol><symbol id="svg-power" viewBox="0 0 24 24"><path d="M19.07 5.93q1.383 1.383 2.14 3.18Q22 10.97 22 13t-.79 3.892q-.757 1.797-2.14 3.18t-3.18 2.14q-1.86.79-3.89.79t-3.892-.79q-1.797-.757-3.18-2.14t-2.14-3.18q-.79-1.86-.79-3.89t.79-3.892q.757-1.797 2.14-3.18.29-.29.703-.29t.712.29.297.703-.298.71q-1.102 1.103-1.72 2.54Q4 11.383 4 13t.625 3.117q.617 1.437 1.72 2.54t2.538 1.718Q10.38 21 12 21t3.117-.625q1.437-.617 2.54-1.72t1.718-2.538q.625-1.5.625-3.117t-.625-3.117q-.617-1.437-1.72-2.54-.296-.296-.296-.71t.297-.703.71-.29.704.29zM12 1q.414 0 .707.293T13 2v10q0 .414-.293.707T12 13t-.707-.293T11 12V2q0-.414.293-.707T12 1z"/></symbol><symbol id="svg-printer" viewBox="0 0 24 24"><path d="M9 2h6q1.242 0 2.12.88T18 5v5h2q1.242 0 2.12.88T23 13v4q0 1.242-.88 2.12T20 20h-2.172q-.312.883-1.086 1.44T15 22H9q-.97 0-1.742-.56T6.172 20H4q-1.242 0-2.12-.88T1 17v-4q0-1.242.88-2.12T4 10h2V5q0-1.242.88-2.12T9 2zm6 16H9q-.414 0-.707.293T8 19t.293.707T9 20h6q.414 0 .707-.293T16 19t-.293-.707T15 18zm5-6H4q-.414 0-.707.293T3 13v4q0 .414.293.707T4 18h2.172q.312-.883 1.086-1.44T9 16h6q.97 0 1.742.56T17.828 18H20q.414 0 .707-.293T21 17v-4q0-.414-.293-.707T20 12zm-5-8H9q-.414 0-.707.293T8 5v5h8V5q0-.414-.293-.707T15 4z"/></symbol><symbol id="svg-record" viewBox="0 0 24 24"><path d="M12 3q1.828 0 3.496.715t2.87 1.918 1.92 2.87T21 12t-.715 3.496-1.918 2.87-2.87 1.92T12 21t-3.496-.715-2.87-1.918-1.92-2.87T3 12t.715-3.496 1.918-2.87 2.87-1.92T12 3zm0 2q-1.422 0-2.72.555T7.048 7.047 5.555 9.28 5 12t.555 2.72 1.492 2.233 2.234 1.492T12 19t2.72-.555 2.233-1.492 1.492-2.234T19 12t-.555-2.72-1.492-2.233-2.234-1.492T12 5z"/></symbol><symbol id="svg-reload" viewBox="0 0 24 24"><path d="M11 2q1.945 0 3.766.734 1.867.758 3.305 2.195.01.007 2.93 2.866V4q0-.415.294-.708T22 3t.708.292T23 4v6q0 .413-.292.706T22 11h-6q-.413 0-.706-.294T15 10t.294-.708T16 9h3.376q-2.172-2.11-2.72-2.657-1.163-1.164-2.647-1.758Q12.58 4 11 4t-3.007.585Q6.5 5.18 5.345 6.343 4.19 7.5 3.587 8.99 3 10.42 3 12t.587 3.007q.602 1.492 1.758 2.648Q6.5 18.82 7.993 19.413 9.423 20 11 20t3.01-.587q1.483-.594 2.647-1.758 1.297-1.297 1.89-2.992.134-.39.51-.566t.765-.043q.39.14.57.516t.04.766q-.36 1.023-.974 2T18.07 19.07q-1.436 1.437-3.304 2.195Q12.946 22 11 22t-3.766-.735q-1.867-.758-3.305-2.195t-2.196-3.305Q1 13.945 1 12t.734-3.767q.758-1.867 2.195-3.305t3.304-2.195Q9.054 2 11 2z"/></symbol><symbol id="svg-repeat" viewBox="0 0 24 24"><path d="M1 13h6q.414 0 .707.293T8 14t-.293.707T7 15H3.625l2.72 2.656Q7.5 18.82 8.99 19.414 10.422 20 12 20t3.008-.586q.78-.32 1.465-.785t1.164-.954.875-1.047.633-1.028.402-.938q.14-.39.516-.566t.758-.043q.392.14.567.512t.043.754q-.328 1-.953 1.985T19.07 19.07q-1.436 1.438-3.304 2.196Q13.954 22 12 22q-1.945 0-3.766-.734-1.867-.758-3.305-2.195L2 16.205V20q0 .415-.294.708T1 21 .29 20.71 0 20v-6q0-.413.292-.706T1 13zM12 2q1.945 0 3.766.734 1.867.758 3.305 2.195l.017.015L22 7.797V4q0-.414.294-.707T23 3t.708.293T24 4v6q0 .414-.292.707T23 11h-6q-.413 0-.706-.293T16 10t.294-.707T17 9h3.376l-2.72-2.656q-1.14-1.14-2.597-1.742T12 4q-1.578 0-3.008.586Q7.5 5.18 6.344 6.344q-.47.414-1.027 1.262t-.863 1.73q-.14.39-.516.566t-.758.043q-.39-.14-.566-.512T2.57 8.68q.33-1 .954-1.985T4.93 4.93Q6.367 3.49 8.235 2.733 10.055 2 12 2z"/></symbol><symbol id="svg-reply" viewBox="0 0 24 24"><path d="M8.36 3.633q.405 0 .702.293t.297.707-.298.71L4.406 10H14q1.828 0 3.496.71t2.87 1.92 1.92 2.87T23 19v1q0 .414-.293.707T22 21q-.406 0-.703-.297T21 20v-1q0-1.422-.555-2.72t-1.492-2.233-2.234-1.492T14 12H4.406l4.656 4.664q.297.297.297.703 0 .414-.294.71t-.707.298-.712-.297l-6.36-6.367Q1 11.423 1 11q0-.414.29-.703L7.647 3.93q.297-.297.71-.297z"/></symbol><symbol id="svg-rewind" viewBox="0 0 24 24"><path d="M18 4q.414 0 .707.293T19 5t-.297.71L12.413 12l6.29 6.29q.297.296.297.71t-.293.707T18 20q-.422 0-.71-.29l-7-7Q10 12.423 10 12t.29-.71l7-7Q17.577 4 18 4zm-6 0q.414 0 .707.293T13 5t-.297.71L6.413 12l6.29 6.29q.297.296.297.71t-.293.707T12 20q-.422 0-.71-.29l-7-7Q4 12.423 4 12t.29-.71l7-7Q11.577 4 12 4z"/></symbol><symbol id="svg-ribbon" viewBox="0 0 24 24"><path d="M7 1h10q1.242 0 2.12.88T20 4v19l-8-6-8 6V4q0-1.242.88-2.12T7 1zm10 2H7q-.414 0-.707.293T6 4v15l6-4.5 6 4.5V4q0-.414-.293-.707T17 3z"/></symbol><symbol id="svg-search" viewBox="0 0 24 24"><path d="M10 1q1.828 0 3.496.715t2.87 1.918 1.92 2.87T19 10q0 1.57-.512 3.008t-1.457 2.61l5.68 5.67q.29.29.29.712 0 .43-.285.715T22 23q-.422 0-.71-.29l-5.673-5.68q-1.172.946-2.61 1.458T10 19q-1.828 0-3.496-.715t-2.87-1.918-1.92-2.87T1 10t.715-3.496 1.918-2.87 2.87-1.92T10 1zm0 2q-1.422 0-2.72.555T5.048 5.047 3.555 7.28 3 10t.555 2.72 1.492 2.233 2.234 1.492T10 17t2.72-.555 2.233-1.492 1.492-2.234T17 10t-.555-2.72-1.492-2.233-2.234-1.492T10 3z"/></symbol><symbol id="svg-server" viewBox="0 0 24 24"><path d="M12 1q2.047 0 3.96.246t3.513.72 2.562 1.257T23 5v14q0 .992-.965 1.777t-2.562 1.258-3.512.72T12 23t-3.96-.246-3.513-.72-2.562-1.257T1 19V5q0-.992.965-1.777t2.562-1.258 3.512-.72T12 1zm9 17.984V14.43q-1.53.772-3.945 1.17T12 16t-5.055-.4T3 14.43V19q.047.17.418.413t1.137.523 1.78.516 2.51.39T12 21t3.156-.157 2.508-.395 1.78-.52 1.138-.523.418-.422zm0-7V7.43q-1.53.772-3.945 1.17T12 9t-5.055-.4T3 7.43V12q.047.17.418.413t1.137.523 1.78.516 2.51.39T12 14t3.156-.157 2.504-.39 1.777-.517 1.14-.527.423-.427zM12 3q-1.648 0-3.133.156t-2.492.387-1.777.508-1.152.524T3 5q.064.18.446.426t1.152.523 1.777.507 2.492.387T12 7t3.133-.156 2.492-.387 1.777-.508 1.152-.524T21 5q-.064-.18-.446-.426t-1.152-.523-1.777-.507-2.492-.387T12 3z"/></symbol><symbol id="svg-share" viewBox="0 0 24 24"><path d="M18 2q1.656 0 2.828 1.172T22 6t-1.172 2.828T18 10q-.883 0-1.668-.363t-1.348-1.012l-5.07 2.54Q10 11.577 10 12t-.086.836l5.07 2.54q.563-.65 1.348-1.013T18 14q1.656 0 2.828 1.172T22 18t-1.172 2.828T18 22t-2.828-1.172T14 18q0-.422.086-.836l-5.07-2.54q-.563.65-1.348 1.013T6 16q-1.656 0-2.828-1.172T2 12t1.172-2.828T6 8q.883 0 1.668.363t1.348 1.012l5.07-2.54Q14 6.423 14 6q0-1.656 1.172-2.828T18 2zM6 10q-.828 0-1.414.586T4 12t.586 1.414T6 14t1.414-.586T8 12t-.586-1.414T6 10zm12 6q-.828 0-1.414.586T16 18t.586 1.414T18 20t1.414-.586T20 18t-.586-1.414T18 16zm0-12q-.828 0-1.414.586T16 6t.586 1.414T18 8t1.414-.586T20 6t-.586-1.414T18 4z"/></symbol><symbol id="svg-shuffle" viewBox="0 0 24 24"><path d="M18 0q.414 0 .71.297l4 4q.29.29.29.703 0 .422-.29.71l-4 4q-.288.29-.71.29-.414 0-.707-.293T17 9q0-.398.29-.703L19.585 6H18q-1.406 0-2.64.613T13.29 8.29Q12 9.93 12 12q0 2.086-1 3.875-.53.96-1.29 1.727-1.108 1.133-2.585 1.766T4 20H2q-.414 0-.707-.292T1 19t.293-.706T2 18h2q1.414 0 2.645-.608T8.71 15.72Q10 14.08 10 12q0-2.085 1-3.874.54-.97 1.29-1.72 1.108-1.132 2.585-1.77T18 4h1.586L17.29 1.71Q17 1.407 17 1q0-.414.293-.707T18 0zm0 14q.414 0 .71.297l4 4q.29.29.29.71 0 .415-.29.704l-4 4q-.288.29-.71.29-.414 0-.707-.29T17 23.01q0-.406.29-.71L19.585 20H18q-1.648 0-3.125-.633T12.29 17.6q.6-.882 1-1.882.835 1.062 2.065 1.672T18 18h1.586l-2.297-2.29Q17 15.405 17 15q0-.415.293-.708T18 14zM2 4h2q1.648 0 3.125.637t2.586 1.77q-.608.898-1 1.883-.835-1.062-2.07-1.676T4 6H2q-.414 0-.707-.292T1 5t.293-.706T2 4z"/></symbol><symbol id="svg-signal" viewBox="0 0 24 24"><path d="M12 4q3.07 0 5.977 1.078T23.25 8.25q.336.29.336.75 0 .39-.25.664l-.047.047q-.29.29-.704.29-.39 0-.664-.25-2.086-1.844-4.652-2.797T12 6t-5.27.953T2.078 9.75q-.273.25-.664.25-.46 0-.75-.336Q.414 9.39.414 9q0-.46.336-.75 2.375-2.094 5.277-3.172T12 4zm.008 12q1.36 0 2.523.687.235.14.368.37t.133.497-.14.5q-.07.117-.156.203-.29.29-.71.29-.282 0-.5-.134Q12.81 18 12.006 18q-.813 0-1.523.413-.25.14-.508.14-.57 0-.867-.49-.142-.235-.142-.5 0-.57.492-.868Q10.64 16 12.007 16zM12 10.008q1.89 0 3.68.625t3.28 1.852q.368.297.368.773 0 .36-.227.633-.046.064-.062.08-.29.288-.703.288-.367 0-.64-.227-1.22-1-2.69-1.515T12 12t-3.008.515-2.688 1.516q-.273.228-.633.228-.478 0-.774-.367-.227-.272-.227-.632 0-.477.366-.773 1.484-1.227 3.28-1.852t3.68-.625z"/></symbol><symbol id="svg-skip-back" viewBox="0 0 24 24"><path d="M17 4q.414 0 .707.293T18 5q0 .422-.29.71L11.415 12l6.297 6.297q.29.29.29.71 0 .415-.293.704T17 20q-.422 0-.71-.29l-7-7Q9 12.407 9 12q0-.398.29-.703l7-7Q16.585 4 17 4zM6 4q.414 0 .707.293T7 5v14q0 .414-.293.707T6 20t-.707-.293T5 19V5q0-.414.293-.707T6 4z"/></symbol><symbol id="svg-skip-forward" viewBox="0 0 24 24"><path d="M6 4q.414 0 .71.297l7 7q.29.29.29.703 0 .422-.29.71l-7 7Q6.423 20 6 20q-.414 0-.707-.29T5 19.01q0-.406.29-.71L11.585 12 5.29 5.71Q5 5.407 5 5q0-.414.293-.707T6 4zm11 0q.414 0 .707.293T18 5v14q0 .414-.293.707T17 20t-.707-.293T16 19V5q0-.414.293-.707T17 4z"/></symbol><symbol id="svg-speech-bubble" viewBox="0 0 24 24"><path d="M4 1h16q1.242 0 2.12.88T23 4v11q0 1.242-.88 2.12T20 18h-8l-7 5v-5H4q-1.242 0-2.12-.88T1 15V4q0-1.242.88-2.12T4 1zm16 2H4q-.414 0-.707.293T3 4v11q0 .414.293.707T4 16h3v3.117L11.36 16H20q.414 0 .707-.293T21 15V4q0-.414-.293-.707T20 3z"/></symbol><symbol id="svg-square-check" viewBox="0 0 24 24"><path d="M4 1h16q1.242 0 2.12.88T23 4v16q0 1.242-.88 2.12T20 23H4q-1.242 0-2.12-.88T1 20V4q0-1.242.88-2.12T4 1zm16 2H4q-.414 0-.707.293T3 4v16q0 .414.293.707T4 21h16q.414 0 .707-.293T21 20V4q0-.414-.293-.707T20 3zm-4 5.523q.406 0 .703.293t.297.707-.297.71l-4.945 4.946q-.29.288-.703.288-.422 0-.71-.29l-2.83-2.827q-.288-.288-.288-.71 0-.414.293-.707t.707-.293q.406 0 .703.297l2.117 2.125L15.29 8.82q.296-.297.71-.297z"/></symbol><symbol id="svg-square-cross" viewBox="0 0 24 24"><path d="M4 1h16q1.242 0 2.12.88T23 4v16q0 1.242-.88 2.12T20 23H4q-1.242 0-2.12-.88T1 20V4q0-1.242.88-2.12T4 1zm16 2H4q-.414 0-.707.293T3 4v16q0 .414.293.707T4 21h16q.414 0 .707-.293T21 20V4q0-.414-.293-.707T20 3zm-5.172 5.164q.414 0 .71.297t.298.712-.297.71L13.413 12l2.125 2.117q.296.297.296.71t-.297.708-.712.293-.703-.29L12 13.415 9.875 15.54q-.28.288-.703.288-.43 0-.715-.285t-.285-.715q0-.422.29-.71L10.585 12 8.46 9.883q-.288-.29-.288-.71 0-.415.293-.712t.707-.296q.422 0 .703.297L12 10.587l2.125-2.125q.297-.296.703-.296z"/></symbol><symbol id="svg-square-minus" viewBox="0 0 24 24"><path d="M4 1h16q1.242 0 2.12.88T23 4v16q0 1.242-.88 2.12T20 23H4q-1.242 0-2.12-.88T1 20V4q0-1.242.88-2.12T4 1zm16 2H4q-.414 0-.707.293T3 4v16q0 .414.293.707T4 21h16q.414 0 .707-.293T21 20V4q0-.414-.293-.707T20 3zM8 11h8q.414 0 .707.293T17 12t-.293.707T16 13H8q-.414 0-.707-.293T7 12t.293-.707T8 11z"/></symbol><symbol id="svg-square-plus" viewBox="0 0 24 24"><path d="M4 1h16q1.242 0 2.12.88T23 4v16q0 1.242-.88 2.12T20 23H4q-1.242 0-2.12-.88T1 20V4q0-1.242.88-2.12T4 1zm16 2H4q-.414 0-.707.293T3 4v16q0 .414.293.707T4 21h16q.414 0 .707-.293T21 20V4q0-.414-.293-.707T20 3zm-8 4q.414 0 .707.293T13 8v3h3q.414 0 .707.293T17 12t-.293.707T16 13h-3v3q0 .414-.293.707T12 17t-.707-.293T11 16v-3H8q-.414 0-.707-.293T7 12t.293-.707T8 11h3V8q0-.414.293-.707T12 7z"/></symbol><symbol id="svg-stack-2" viewBox="0 0 24 24"><path d="M9 2h10q1.242 0 2.12.88T22 5v10q0 1.242-.88 2.12T19 18H9q-1.242 0-2.12-.88T6 15V5q0-1.242.88-2.12T9 2zM4 6.172V19q0 .414.293.707T5 20h12.828q-.312.883-1.086 1.44T15 22H5q-1.242 0-2.12-.88T2 19V9q0-.97.56-1.742T4 6.172zM19 4H9q-.414 0-.707.293T8 5v10q0 .414.293.707T9 16h10q.414 0 .707-.293T20 15V5q0-.414-.293-.707T19 4z"/></symbol><symbol id="svg-stack" viewBox="0 0 24 24"><path d="M11 1h9q1.242 0 2.12.88T23 4v9q0 1.242-.88 2.12T20 16h-4v4q0 1.242-.88 2.12T13 23H4q-1.242 0-2.12-.88T1 20v-9q0-1.242.88-2.12T4 8h4V4q0-1.242.88-2.12T11 1zM8 13v-3H4q-.414 0-.707.293T3 11v9q0 .414.293.707T4 21h9q.414 0 .707-.293T14 20v-4h-3q-1.242 0-2.12-.88T8 13zM20 3h-9q-.414 0-.707.293T10 4v9q0 .414.293.707T11 14h9q.414 0 .707-.293T21 13V4q0-.414-.293-.707T20 3z"/></symbol><symbol id="svg-star" viewBox="0 0 24 24"><path d="M9.297 9L12 .68 14.703 9h8.75l-7.078 4.914 2.703 8.172L12 16.906l-7.078 5.14 2.703-8.132L.547 9h8.75zm3.953 2L12 7.023 10.75 11H6.867l3.125 2.07-1.227 3.695 3.242-2.344 3.227 2.368-1.227-3.695L17.124 11H13.25z"/></symbol><symbol id="svg-stop" viewBox="0 0 24 24"><path d="M6 3h12q1.242 0 2.12.88T21 6v12q0 1.242-.88 2.12T18 21H6q-1.242 0-2.12-.88T3 18V6q0-1.242.88-2.12T6 3zm12 2H6q-.414 0-.707.293T5 6v12q0 .414.293.707T6 19h12q.414 0 .707-.293T19 18V6q0-.414-.293-.707T18 5z"/></symbol><symbol id="svg-sun" viewBox="0 0 24 24"><path d="M12 6q1.633 0 3.012.805t2.184 2.184T18 12t-.804 3.013-2.184 2.184-3.012.805-3.012-.805-2.184-2.184T6 12t.804-3.01 2.184-2.185T12 6zM5.64 17.36q.415 0 .708.296t.293.71q0 .407-.296.704L4.93 20.484q-.297.297-.703.297-.414 0-.707-.292t-.293-.707q0-.42.29-.71l1.413-1.414q.297-.297.71-.297zM12 20q.414 0 .707.293T13 21v2q0 .414-.293.707T12 24t-.707-.293T11 23v-2q0-.414.293-.707T12 20zM1 11h2q.414 0 .707.293T4 12t-.293.707T3 13H1q-.414 0-.707-.293T0 12t.293-.707T1 11zm11-3q-1.656 0-2.828 1.172T8 12t1.172 2.828T12 16t2.828-1.172T16 12t-1.172-2.828T12 8zm6.367 9.36q.406 0 .703.296l1.414 1.414q.297.297.297.71 0 .407-.296.704t-.703.297q-.413 0-.71-.296l-1.414-1.414q-.29-.29-.29-.703t.294-.71.707-.298zM4.227 3.22q.406 0 .703.296L6.344 4.93q.297.297.297.703 0 .414-.292.707t-.707.293q-.42 0-.71-.29L3.516 4.93q-.29-.29-.29-.71 0-.415.294-.708t.707-.293zM12 0q.414 0 .707.293T13 1v2q0 .414-.293.707T12 4t-.707-.293T11 3V1q0-.414.293-.707T12 0zm9 11h2q.414 0 .707.293T24 12t-.293.707T23 13h-2q-.414 0-.707-.293T20 12t.293-.707T21 11zm-1.22-7.78q.407 0 .704.296t.297.703q0 .413-.296.71L19.07 6.344q-.29.29-.703.29-.43 0-.715-.286t-.285-.715q0-.414.29-.703l1.413-1.414q.297-.297.71-.297z"/></symbol><symbol id="svg-tag" viewBox="0 0 24 24"><path d="M1 1h11.313l9.813 9.805q.875.875.875 2.117 0 1.25-.874 2.125l-7.078 7.078Q14.173 23 12.93 23q-1.25 0-2.124-.875L1 12.312V1zm19.71 11.22L11.485 3H3v8.484l9.22 9.227q.296.29.71.29t.703-.29l7.078-7.077q.29-.29.29-.703t-.29-.71zM8.5 6q1.04 0 1.77.73T11 8.5t-.73 1.77T8.5 11t-1.77-.73T6 8.5t.73-1.77T8.5 6zm0 2q-.203 0-.352.148T8 8.5t.148.352T8.5 9t.352-.148T9 8.5t-.148-.352T8.5 8z"/></symbol><symbol id="svg-target" viewBox="0 0 24 24"><path d="M12 1q2.242 0 4.277.87t3.508 2.345 2.344 3.508T23 12t-.87 4.277-2.345 3.508-3.508 2.344T12 23t-4.277-.87-3.508-2.345-2.344-3.508T1 12t.87-4.277 2.345-3.508T7.723 1.87 12 1zm0 2q-1.828 0-3.496.715t-2.87 1.918-1.92 2.87T3 12t.715 3.496 1.918 2.87 2.87 1.92T12 21t3.496-.715 2.87-1.918 1.92-2.87T21 12t-.715-3.496-1.918-2.87-2.87-1.92T12 3zm0 2q1.422 0 2.72.555t2.233 1.492 1.492 2.234T19 12t-.555 2.72-1.492 2.233-2.234 1.492T12 19t-2.72-.555-2.233-1.492-1.492-2.234T5 12t.555-2.72 1.492-2.233T9.28 5.555 12 5zm0 2q-1.016 0-1.94.398T8.464 8.464 7.4 10.058t-.4 1.94.4 1.942 1.065 1.594T10.06 16.6t1.94.398 1.94-.398 1.595-1.066T16.6 13.94 17 12t-.4-1.942-1.065-1.594-1.594-1.066T12 7zm0 2q1.242 0 2.12.88T15 12t-.88 2.12T12 15t-2.12-.88T9 12t.88-2.12T12 9zm0 2q-.414 0-.707.293T11 12t.293.707T12 13t.707-.293T13 12t-.293-.707T12 11z"/></symbol><symbol id="svg-thermometer" viewBox="0 0 24 24"><path d="M11.5 0q1.445 0 2.473 1.027T15 3.5v10.758q.93.773 1.465 1.88T17 18.5q0 1.117-.434 2.137t-1.172 1.758-1.758 1.172T11.5 24t-2.138-.433-1.758-1.172-1.172-1.758-.434-2.137q0-1.258.535-2.363t1.465-1.88V3.5q0-1.445 1.027-2.473T11.498 0zm0 2q-.625 0-1.062.438T10 3.5v11.844q-.898.43-1.45 1.277T8 18.5q0 1.445 1.027 2.473T11.5 22t2.473-1.027T15 18.5q0-1.03-.55-1.88T13 15.345V3.5q0-.625-.438-1.062T11.5 2z"/></symbol><symbol id="svg-toggle" viewBox="0 0 24 24"><path d="M8 4h8q1.625 0 3.105.633T21.66 6.34t1.707 2.555T24 12t-.633 3.105-1.707 2.555-2.555 1.707T16 20H8q-1.625 0-3.105-.633T2.34 17.66.633 15.105 0 12t.633-3.105T2.34 6.34t2.555-1.707T8 4zm0 4q1.656 0 2.828 1.172T12 12t-1.172 2.828T8 16t-2.828-1.172T4 12t1.172-2.828T8 8zm0 2q-.828 0-1.414.586T6 12t.586 1.414T8 14t1.414-.586T10 12t-.586-1.414T8 10zm8-4H8q-1.633 0-3.012.805T2.804 8.99 2 12t.804 3.013 2.184 2.184T8 18.002h8q1.633 0 3.012-.805t2.184-2.184T22 12t-.804-3.01-2.184-2.185T16 6z"/></symbol><symbol id="svg-trash" viewBox="0 0 24 24"><path d="M10 1h4q1.242 0 2.12.88T17 4v1h4q.414 0 .707.293T22 6t-.293.707T21 7h-1v12q0 1.242-.88 2.12T17 22H7q-1.242 0-2.12-.88T4 19V7H3q-.414 0-.707-.293T2 6t.293-.707T3 5h4V4q0-1.242.88-2.12T10 1zm8 18V7H6v12q0 .414.293.707T7 20h10q.414 0 .707-.293T18 19zM14 3h-4q-.414 0-.707.293T9 4v1h6V4q0-.414-.293-.707T14 3z"/></symbol><symbol id="svg-twitter" viewBox="0 0 24 24"><path d="M23.04 5.152c-.814.36-1.686.604-2.603.714.936-.56 1.655-1.448 1.992-2.506-.876.518-1.845.896-2.876 1.1-.827-.882-2.004-1.43-3.307-1.43-2.502 0-4.53 2.027-4.53 4.528 0 .355.04.7.118 1.032C8.07 8.402 4.732 6.598 2.5 3.857c-.392.668-.617 1.447-.617 2.278 0 1.572.8 2.958 2.016 3.77-.744-.024-1.442-.227-2.053-.566v.055c0 2.195 1.562 4.025 3.634 4.442-.378.103-.78.158-1.193.158-.292 0-.575-.028-.852-.08.576 1.8 2.25 3.11 4.23 3.145C6.116 18.276 4.164 19 2.04 19c-.366 0-.726-.023-1.08-.065 2.004 1.285 4.385 2.035 6.944 2.035 8.332 0 12.888-6.902 12.888-12.89 0-.195-.004-.39-.013-.585.885-.638 1.65-1.436 2.26-2.345z"/></symbol><symbol id="svg-umbrella" viewBox="0 0 24 24"><path d="M12 1q1.758 0 3.418.492t3.047 1.398 2.5 2.137 1.852 2.762 1.02 3.21q.164.97.164 2H13v6q0 .828.587 1.414T15 21t1.415-.586T17 19q0-.414.294-.707T18 18t.708.293T19 19q0 1.656-1.17 2.828T15 23t-2.827-1.172T11 19v-6H0q0-1.03.165-2 .28-1.68 1.02-3.21t1.852-2.763 2.5-2.137 3.047-1.398T12.002 1zm0 2Q9.625 3 7.54 4.047T4.06 6.914 2.203 11h19.594q-.46-2.266-1.855-4.086t-3.48-2.867T12.003 3z"/></symbol><symbol id="svg-unlock" viewBox="0 0 24 24"><path d="M12 1q1.633 0 3.012.805t2.184 2.184T18 7v1q0 .415-.292.708T17 9t-.706-.292T16 8V7q0-1.655-1.17-2.827T12 3 9.174 4.174 8 7v4h12q1.243 0 2.122.88t.88 2.12v6q0 1.243-.88 2.122t-2.12.88H4q-1.243 0-2.122-.88T1 20.002v-6q0-1.243.88-2.122T4 11h2V7q0-1.632.806-3.01T8.99 1.804 12.002 1zm8 12H4q-.414 0-.707.293T3 14v6q0 .414.293.707T4 21h16q.414 0 .707-.293T21 20v-6q0-.414-.293-.707T20 13z"/></symbol><symbol id="svg-upload" viewBox="0 0 24 24"><path d="M5 0h14q1.242 0 2.12.88T22 3v14q0 1.242-.88 2.12T19 20h-4v-2h4q.414 0 .707-.293T20 17V3q0-.414-.293-.707T19 2H5q-.414 0-.707.293T4 3v14q0 .414.293.707T5 18h4v2H5q-1.242 0-2.12-.88T2 17V3q0-1.242.88-2.12T5 0zm7 7q.422 0 .71.29l4 4q.29.288.29.71 0 .414-.293.707T16 13q-.406 0-.71-.29L13 10.415V23q0 .414-.293.707T12 24t-.707-.293T11 23V10.414L8.71 12.71Q8.407 13 8 13q-.414 0-.707-.293T7 12q0-.406.29-.71l4-4Q11.577 7 12 7z"/></symbol><symbol id="svg-video" viewBox="0 0 24 24"><path d="M3 5h11q1.242 0 2.12.88T17 8v1.82L24 6v12l-7-3.82V16q0 1.242-.88 2.12T14 19H3q-1.242 0-2.12-.88T0 16V8q0-1.242.88-2.12T3 5zm11 2H3q-.414 0-.707.293T2 8v8q0 .414.293.707T3 17h11q.414 0 .707-.293T15 16V8q0-.414-.293-.707T14 7zm8 7.633V9.367L17.18 12z"/></symbol><symbol id="svg-vimeo" viewBox="0 0 24 24"><path d="M22.692 7.01c-1.207 6.925-7.95 12.79-9.978 14.13-2.03 1.34-3.878-.536-4.55-1.956C7.396 17.568 5.094 8.796 4.49 8.07c-.602-.727-2.412.726-2.412.726L1.2 7.626s3.675-4.47 6.47-5.03c2.965-.59 2.96 4.638 3.673 7.54.69 2.81 1.153 4.418 1.754 4.418.604 0 1.754-1.567 3.016-3.968 1.264-2.404-.054-4.525-2.522-3.017.987-6.035 10.31-7.485 9.103-.56z"/></symbol><symbol id="svg-volume" viewBox="0 0 24 24"><path d="M5 8l5-5v18l-5-5H3q-1.242 0-2.12-.88T0 13v-1.96q0-1.243.88-2.142T3 8h2zm3 8.172V7.79L5.828 10H3q-.406 0-.703.31T2 11.04V13q0 .414.293.707T3 14h2.828zm6.53-7.508q.29 0 .544.164t.38.445Q16 10.593 16 12q0 1.43-.547 2.71-.117.282-.37.45t-.552.168q-.366 0-.683-.277t-.316-.722q0-.18.08-.39.39-.923.39-1.94 0-1.007-.39-1.944-.08-.18-.08-.39 0-.446.302-.724t.7-.277zm3.056-2.79q.563 0 .86.493.772 1.29 1.147 2.664Q20 10.5 20 12q0 1.492-.407 2.977-.383 1.39-1.148 2.664-.29.485-.86.485-.39 0-.694-.28t-.304-.72q0-.273.148-.516.61-1.017.93-2.173Q18 13.265 18 12q0-1.26-.336-2.43-.32-1.157-.93-2.18-.148-.228-.148-.51 0-.42.31-.714t.69-.293zm2.992-2.74q.54 0 .828.437Q22.68 5.44 23.34 7.588T24 12t-.66 4.415-1.934 4.016q-.28.44-.828.44-.406 0-.7-.282t-.292-.72q0-.31.172-.562Q22 16.016 22 12q0-1.968-.57-3.827t-1.672-3.477q-.172-.25-.172-.563 0-.438.293-.72t.698-.28z"/></symbol><symbol id="svg-watch" viewBox="0 0 24 24"><path d="M9 0h6q1.242 0 2.12.88T18 3v2.297q1.406 1.25 2.203 2.996T21 12t-.797 3.703-2.203 3V21q0 1.242-.88 2.12T15 24H9q-1.242 0-2.12-.88T6 21v-2.297q-1.406-1.258-2.203-3T3 12t.797-3.707T6 5.297V3q0-1.242.88-2.12T9 0zm7 21v-.938Q14.125 21 12 21t-4-.938V21q0 .414.293.707T9 22h6q.414 0 .707-.293T16 21zM12 5q-1.422 0-2.72.555T7.048 7.047 5.555 9.28 5 12t.555 2.72 1.492 2.233 2.234 1.492T12 19t2.72-.555 2.233-1.492 1.492-2.234T19 12t-.555-2.72-1.492-2.233-2.234-1.492T12 5zm0 2q.414 0 .707.293T13 8v3.586l1.71 1.703q.29.288.29.71t-.29.71T14 15t-.71-.29l-2-2Q11 12.423 11 12V8q0-.414.293-.707T12 7zm3-5H9q-.414 0-.707.293T8 3v.938Q9.875 3 12 3t4 .938V3q0-.414-.293-.707T15 2z"/></symbol><symbol id="svg-zoom-in" viewBox="0 0 24 24"><path d="M10 1q1.828 0 3.496.715t2.87 1.918 1.92 2.87T19 10q0 1.57-.512 3.008t-1.457 2.61l5.68 5.67q.29.29.29.712 0 .43-.285.715T22 23q-.422 0-.71-.29l-5.673-5.68q-1.172.946-2.61 1.458T10 19q-1.828 0-3.496-.715t-2.87-1.918-1.92-2.87T1 10t.715-3.496 1.918-2.87 2.87-1.92T10 1zm0 2q-1.422 0-2.72.555T5.048 5.047 3.555 7.28 3 10t.555 2.72 1.492 2.233 2.234 1.492T10 17t2.72-.555 2.233-1.492 1.492-2.234T17 10t-.555-2.72-1.492-2.233-2.234-1.492T10 3zm0 3q.414 0 .707.293T11 7v2h2q.414 0 .707.293T14 10t-.293.707T13 11h-2v2q0 .414-.293.707T10 14t-.707-.293T9 13v-2H7q-.414 0-.707-.293T6 10t.293-.707T7 9h2V7q0-.414.293-.707T10 6z"/></symbol><symbol id="svg-zoom-out" viewBox="0 0 24 24"><path d="M10 1q1.828 0 3.496.715t2.87 1.918 1.92 2.87T19 10q0 1.57-.512 3.008t-1.457 2.61l5.68 5.67q.29.29.29.712 0 .43-.285.715T22 23q-.422 0-.71-.29l-5.673-5.68q-1.172.946-2.61 1.458T10 19q-1.828 0-3.496-.715t-2.87-1.918-1.92-2.87T1 10t.715-3.496 1.918-2.87 2.87-1.92T10 1zm0 2q-1.422 0-2.72.555T5.048 5.047 3.555 7.28 3 10t.555 2.72 1.492 2.233 2.234 1.492T10 17t2.72-.555 2.233-1.492 1.492-2.234T17 10t-.555-2.72-1.492-2.233-2.234-1.492T10 3zM7 9h6q.414 0 .707.293T14 10t-.293.707T13 11H7q-.414 0-.707-.293T6 10t.293-.707T7 9z"/></symbol></svg>