<?xml version="1.0" encoding="utf-8"?>
<!-- Generated by IcoMoon.io -->
<!DOCTYPE svg PUBLIC "-//W3C//DTD SVG 1.1//EN" "http://www.w3.org/Graphics/SVG/1.1/DTD/svg11.dtd">
<svg version="1.1" xmlns="http://www.w3.org/2000/svg" xmlns:xlink="http://www.w3.org/1999/xlink" width="24" height="24" viewBox="0 0 24 24">
<path d="M20 1q1.242 0 2.121 0.879t0.879 2.121v16q0 1.242-0.879 2.121t-2.121 0.879-2.121-0.879-0.879-2.121v-16q0-1.242 0.879-2.121t2.121-0.879zM4 13q1.242 0 2.121 0.879t0.879 2.121v4q0 1.242-0.879 2.121t-2.121 0.879-2.121-0.879-0.879-2.121v-4q0-1.242 0.879-2.121t2.121-0.879zM4 15q-0.414 0-0.707 0.293t-0.293 0.707v4q0 0.414 0.293 0.707t0.707 0.293 0.707-0.293 0.293-0.707v-4q0-0.414-0.293-0.707t-0.707-0.293zM12 7q1.242 0 2.121 0.879t0.879 2.121v10q0 1.242-0.879 2.121t-2.121 0.879-2.121-0.879-0.879-2.121v-10q0-1.242 0.879-2.121t2.121-0.879zM12 9q-0.414 0-0.707 0.293t-0.293 0.707v10q0 0.414 0.293 0.707t0.707 0.293 0.707-0.293 0.293-0.707v-10q0-0.414-0.293-0.707t-0.707-0.293zM20 3q-0.414 0-0.707 0.293t-0.293 0.707v16q0 0.414 0.293 0.707t0.707 0.293 0.707-0.293 0.293-0.707v-16q0-0.414-0.293-0.707t-0.707-0.293z" fill="#000000"></path>
</svg>
