<?xml version="1.0" encoding="utf-8"?>
<!-- Generated by IcoMoon.io -->
<!DOCTYPE svg PUBLIC "-//W3C//DTD SVG 1.1//EN" "http://www.w3.org/Graphics/SVG/1.1/DTD/svg11.dtd">
<svg version="1.1" xmlns="http://www.w3.org/2000/svg" xmlns:xlink="http://www.w3.org/1999/xlink" width="24" height="24" viewBox="0 0 24 24">
<path d="M15 2q1.828 0 3.496 0.715t2.871 1.918 1.918 2.871 0.715 3.496q0 1.703-0.621 3.273t-1.688 2.75-2.547 1.957-3.145 0.965v-2.016q1.68-0.242 3.051-1.215t2.16-2.477 0.789-3.238q0-1.422-0.555-2.719t-1.492-2.234-2.234-1.492-2.719-0.555q-1.297 0-2.496 0.465t-2.109 1.262-1.523 1.906-0.793 2.367h-2.078q-1.656 0-2.828 1.172t-1.172 2.828q0 0.906 0.355 1.68t0.934 1.27 1.285 0.773 1.426 0.277h4v2h-4q-1.633 0-3.012-0.805t-2.184-2.184-0.805-3.012 0.805-3.012 2.184-2.184 3.012-0.805h0.516q0.617-1.742 1.859-3.098t2.973-2.129 3.652-0.773zM13 10q0.414 0 0.711 0.297l3 3q0.289 0.289 0.289 0.703 0 0.43-0.285 0.715t-0.715 0.285q-0.422 0-0.711-0.289l-1.289-1.297v6.586q0 0.414-0.293 0.707t-0.707 0.293-0.707-0.293-0.293-0.707v-6.586l-1.289 1.297q-0.289 0.289-0.711 0.289-0.414 0-0.707-0.293t-0.293-0.707q0-0.398 0.289-0.703l3-3q0.297-0.297 0.711-0.297z" fill="#000000"></path>
</svg>
