<?xml version="1.0" encoding="utf-8"?>
<!-- Generated by IcoMoon.io -->
<!DOCTYPE svg PUBLIC "-//W3C//DTD SVG 1.1//EN" "http://www.w3.org/Graphics/SVG/1.1/DTD/svg11.dtd">
<svg version="1.1" xmlns="http://www.w3.org/2000/svg" xmlns:xlink="http://www.w3.org/1999/xlink" width="24" height="24" viewBox="0 0 24 24">
<path d="M8 3h13q1.242 0 2.121 0.879t0.879 2.121v12q0 1.242-0.879 2.121t-2.121 0.879h-13l-8-9zM21 5h-12.102l-6.219 7 6.219 7h12.102q0.414 0 0.707-0.293t0.293-0.707v-12q0-0.414-0.293-0.707t-0.707-0.293zM19 9q0 0.422-0.289 0.711l-2.297 2.289 2.297 2.289q0.289 0.289 0.289 0.711 0 0.43-0.285 0.715t-0.715 0.285q-0.422 0-0.711-0.289l-2.289-2.297-2.289 2.297q-0.289 0.289-0.711 0.289-0.414 0-0.707-0.293t-0.293-0.707q0-0.406 0.289-0.711l2.297-2.289-2.297-2.289q-0.289-0.305-0.289-0.711 0-0.414 0.293-0.707t0.707-0.293q0.422 0 0.711 0.289l2.289 2.297 2.289-2.297q0.289-0.289 0.711-0.289 0.43 0 0.715 0.285t0.285 0.715z" fill="#000000"></path>
</svg>
