<?xml version="1.0" encoding="utf-8"?>
<!-- Generated by IcoMoon.io -->
<!DOCTYPE svg PUBLIC "-//W3C//DTD SVG 1.1//EN" "http://www.w3.org/Graphics/SVG/1.1/DTD/svg11.dtd">
<svg version="1.1" xmlns="http://www.w3.org/2000/svg" xmlns:xlink="http://www.w3.org/1999/xlink" width="24" height="24" viewBox="0 0 24 24">
<path d="M15 4h4q1.242 0 2.121 0.879t0.879 2.121v14q0 1.242-0.879 2.121t-2.121 0.879h-14q-1.242 0-2.121-0.879t-0.879-2.121v-14q0-1.242 0.879-2.121t2.121-0.879h4v2h-4q-0.414 0-0.707 0.293t-0.293 0.707v14q0 0.414 0.293 0.707t0.707 0.293h14q0.414 0 0.707-0.293t0.293-0.707v-14q0-0.414-0.293-0.707t-0.707-0.293h-4v-2zM12 0q0.414 0 0.707 0.293t0.293 0.707v12.586l2.289-2.297q0.289-0.289 0.711-0.289 0.43 0 0.715 0.285t0.285 0.715q0 0.422-0.289 0.711l-4 4q-0.289 0.289-0.711 0.289t-0.711-0.289l-4-4q-0.289-0.305-0.289-0.711 0-0.414 0.293-0.707t0.707-0.293q0.422 0 0.711 0.289l2.289 2.297v-12.586q0-0.414 0.293-0.707t0.707-0.293z" fill="#000000"></path>
</svg>
