<?xml version="1.0" encoding="utf-8"?>
<!-- Generated by IcoMoon.io -->
<!DOCTYPE svg PUBLIC "-//W3C//DTD SVG 1.1//EN" "http://www.w3.org/Graphics/SVG/1.1/DTD/svg11.dtd">
<svg version="1.1" xmlns="http://www.w3.org/2000/svg" xmlns:xlink="http://www.w3.org/1999/xlink" width="24" height="24" viewBox="0 0 24 24">
<path d="M13.102 1.055q2.023 0.203 3.84 1.117t3.191 2.422q1.352 1.484 2.102 3.367 0.766 1.945 0.766 4.039 0 2.242-0.867 4.281-0.805 1.93-2.352 3.5-1.57 1.547-3.5 2.352-2.039 0.867-4.281 0.867-2.094 0-4.039-0.766-1.883-0.75-3.367-2.102-1.508-1.375-2.422-3.191t-1.117-3.84q-0.039-0.445 0.254-0.773t0.746-0.328q0.383 0 0.668 0.258t0.324 0.641q0.164 1.664 0.91 3.148t1.988 2.609q1.211 1.117 2.75 1.719 1.594 0.625 3.305 0.625 1.836 0 3.5-0.703 1.578-0.664 2.867-1.93 1.266-1.289 1.93-2.867 0.703-1.664 0.703-3.5 0-1.711-0.625-3.305-0.602-1.539-1.719-2.75-1.125-1.242-2.609-1.988t-3.148-0.91q-0.383-0.039-0.641-0.324t-0.258-0.668q0-0.297 0.113-0.508t0.301-0.312 0.355-0.141 0.332-0.039zM2 1h6q0.414 0 0.707 0.293t0.293 0.707-0.293 0.707-0.707 0.293h-3.586l8.297 8.297q0.289 0.281 0.289 0.703 0 0.43-0.285 0.715t-0.715 0.285q-0.422 0-0.711-0.289l-8.289-8.297v3.586q0 0.414-0.293 0.707t-0.707 0.293-0.707-0.293-0.293-0.707v-6q0-0.414 0.293-0.707t0.707-0.293z" fill="#000000"></path>
</svg>
