<?xml version="1.0" encoding="utf-8"?>
<!-- Generated by IcoMoon.io -->
<!DOCTYPE svg PUBLIC "-//W3C//DTD SVG 1.1//EN" "http://www.w3.org/Graphics/SVG/1.1/DTD/svg11.dtd">
<svg version="1.1" xmlns="http://www.w3.org/2000/svg" xmlns:xlink="http://www.w3.org/1999/xlink" width="24" height="24" viewBox="0 0 24 24">
<path d="M12 1q2.242 0 4.277 0.871t3.508 2.344 2.344 3.508 0.871 4.277-0.871 4.277-2.344 3.508-3.508 2.344-4.277 0.871-4.277-0.871-3.508-2.344-2.344-3.508-0.871-4.277 0.871-4.277 2.344-3.508 3.508-2.344 4.277-0.871zM13 3.055v2.945q0 0.414-0.293 0.707t-0.707 0.293-0.707-0.293-0.293-0.707v-2.945q-1.547 0.172-2.934 0.852t-2.434 1.727-1.727 2.434-0.852 2.934h2.945q0.414 0 0.707 0.293t0.293 0.707-0.293 0.707-0.707 0.293h-2.945q0.172 1.547 0.852 2.934t1.727 2.434 2.434 1.727 2.934 0.852v-2.945q0-0.414 0.293-0.707t0.707-0.293 0.707 0.293 0.293 0.707v2.945q1.547-0.172 2.934-0.852t2.434-1.727 1.727-2.434 0.852-2.934h-2.945q-0.414 0-0.707-0.293t-0.293-0.707 0.293-0.707 0.707-0.293h2.945q-0.172-1.547-0.852-2.934t-1.727-2.434-2.434-1.727-2.934-0.852z" fill="#000000"></path>
</svg>
