<?xml version="1.0" encoding="utf-8"?>
<!-- Generated by IcoMoon.io -->
<!DOCTYPE svg PUBLIC "-//W3C//DTD SVG 1.1//EN" "http://www.w3.org/Graphics/SVG/1.1/DTD/svg11.dtd">
<svg version="1.1" xmlns="http://www.w3.org/2000/svg" xmlns:xlink="http://www.w3.org/1999/xlink" width="24" height="24" viewBox="0 0 24 24">
<path d="M14 12.992q0.414 0 0.711 0.297l6.289 6.289v-4.586q0-0.414 0.293-0.707t0.707-0.293 0.707 0.293 0.293 0.707v7q0 0.414-0.297 0.711t-0.711 0.297h-7q-0.414 0-0.707-0.293t-0.293-0.707 0.293-0.707 0.707-0.293h4.586l-6.289-6.289q-0.289-0.305-0.289-0.711 0-0.414 0.293-0.711t0.707-0.297zM2 1h7q0.414 0 0.707 0.293t0.293 0.707-0.293 0.707-0.707 0.293h-4.586l6.289 6.281q0.297 0.297 0.297 0.711t-0.297 0.707-0.711 0.293q-0.398 0-0.711-0.289l-6.281-6.289v4.586q0 0.414-0.293 0.707t-0.707 0.293-0.707-0.293-0.293-0.707v-7q0-0.414 0.293-0.707t0.707-0.293z" fill="#000000"></path>
</svg>
