<?xml version="1.0" encoding="utf-8"?>
<!-- Generated by IcoMoon.io -->
<!DOCTYPE svg PUBLIC "-//W3C//DTD SVG 1.1//EN" "http://www.w3.org/Graphics/SVG/1.1/DTD/svg11.dtd">
<svg version="1.1" xmlns="http://www.w3.org/2000/svg" xmlns:xlink="http://www.w3.org/1999/xlink" width="24" height="24" viewBox="0 0 24 24">
<path d="M6 8l5-5v18l-5-5h-2q-1.242 0-2.121-0.879t-0.879-2.121v-1.961q0-1.242 0.879-2.141t2.121-0.898h2zM9 16.172v-8.383l-2.172 2.211h-2.828q-0.406 0-0.703 0.309t-0.297 0.73v1.961q0 0.414 0.293 0.707t0.707 0.293h2.828zM21 8q0.43 0 0.715 0.285t0.285 0.715q0 0.422-0.289 0.711l-2.297 2.289 2.297 2.289q0.289 0.289 0.289 0.711 0 0.43-0.285 0.715t-0.715 0.285q-0.422 0-0.711-0.289l-2.289-2.297-2.289 2.297q-0.289 0.289-0.711 0.289-0.43 0-0.715-0.285t-0.285-0.715q0-0.422 0.289-0.711l2.297-2.289-2.297-2.289q-0.289-0.289-0.289-0.711 0-0.43 0.285-0.715t0.715-0.285q0.422 0 0.711 0.289l2.289 2.297 2.289-2.297q0.289-0.289 0.711-0.289z" fill="#000000"></path>
</svg>
