<?xml version="1.0" encoding="utf-8"?>
<!-- Generated by IcoMoon.io -->
<!DOCTYPE svg PUBLIC "-//W3C//DTD SVG 1.1//EN" "http://www.w3.org/Graphics/SVG/1.1/DTD/svg11.dtd">
<svg version="1.1" xmlns="http://www.w3.org/2000/svg" xmlns:xlink="http://www.w3.org/1999/xlink" width="24" height="24" viewBox="0 0 24 24">
<path d="M10 1h9q0.414 0 0.707 0.293t0.293 0.707v20q0 0.414-0.293 0.707t-0.707 0.293-0.707-0.293-0.293-0.707v-19h-2v19q0 0.414-0.293 0.707t-0.707 0.293-0.707-0.293-0.293-0.707v-9h-4q-1.633 0-3.012-0.805t-2.184-2.184-0.805-3.012 0.805-3.012 2.184-2.184 3.012-0.805zM14 11v-8h-4q-1.656 0-2.828 1.172t-1.172 2.828 1.172 2.828 2.828 1.172h4z" fill="#000000"></path>
</svg>
