<?xml version="1.0" encoding="utf-8"?>
<!-- Generated by IcoMoon.io -->
<!DOCTYPE svg PUBLIC "-//W3C//DTD SVG 1.1//EN" "http://www.w3.org/Graphics/SVG/1.1/DTD/svg11.dtd">
<svg version="1.1" xmlns="http://www.w3.org/2000/svg" xmlns:xlink="http://www.w3.org/1999/xlink" width="24" height="24" viewBox="0 0 24 24">
<path d="M9 2h6q1.242 0 2.121 0.879t0.879 2.121v5h2q1.242 0 2.121 0.879t0.879 2.121v4q0 1.242-0.879 2.121t-2.121 0.879h-2.172q-0.312 0.883-1.086 1.441t-1.742 0.559h-6q-0.969 0-1.742-0.559t-1.086-1.441h-2.172q-1.242 0-2.121-0.879t-0.879-2.121v-4q0-1.242 0.879-2.121t2.121-0.879h2v-5q0-1.242 0.879-2.121t2.121-0.879zM15 18h-6q-0.414 0-0.707 0.293t-0.293 0.707 0.293 0.707 0.707 0.293h6q0.414 0 0.707-0.293t0.293-0.707-0.293-0.707-0.707-0.293zM20 12h-16q-0.414 0-0.707 0.293t-0.293 0.707v4q0 0.414 0.293 0.707t0.707 0.293h2.172q0.312-0.883 1.086-1.441t1.742-0.559h6q0.969 0 1.742 0.559t1.086 1.441h2.172q0.414 0 0.707-0.293t0.293-0.707v-4q0-0.414-0.293-0.707t-0.707-0.293zM15 4h-6q-0.414 0-0.707 0.293t-0.293 0.707v5h8v-5q0-0.414-0.293-0.707t-0.707-0.293z" fill="#000000"></path>
</svg>
