<?xml version="1.0" encoding="utf-8"?>
<!-- Generated by IcoMoon.io -->
<!DOCTYPE svg PUBLIC "-//W3C//DTD SVG 1.1//EN" "http://www.w3.org/Graphics/SVG/1.1/DTD/svg11.dtd">
<svg version="1.1" xmlns="http://www.w3.org/2000/svg" xmlns:xlink="http://www.w3.org/1999/xlink" width="24" height="24" viewBox="0 0 24 24">
<path d="M12 3q1.828 0 3.496 0.715t2.871 1.918 1.918 2.871 0.715 3.496-0.715 3.496-1.918 2.871-2.871 1.918-3.496 0.715-3.496-0.715-2.871-1.918-1.918-2.871-0.715-3.496 0.715-3.496 1.918-2.871 2.871-1.918 3.496-0.715zM12 5q-1.422 0-2.719 0.555t-2.234 1.492-1.492 2.234-0.555 2.719 0.555 2.719 1.492 2.234 2.234 1.492 2.719 0.555 2.719-0.555 2.234-1.492 1.492-2.234 0.555-2.719-0.555-2.719-1.492-2.234-2.234-1.492-2.719-0.555z" fill="#000000"></path>
</svg>
