<?xml version="1.0" encoding="utf-8"?>
<!-- Generated by IcoMoon.io -->
<!DOCTYPE svg PUBLIC "-//W3C//DTD SVG 1.1//EN" "http://www.w3.org/Graphics/SVG/1.1/DTD/svg11.dtd">
<svg version="1.1" xmlns="http://www.w3.org/2000/svg" xmlns:xlink="http://www.w3.org/1999/xlink" width="24" height="24" viewBox="0 0 24 24">
<path d="M8.359 3.633q0.406 0 0.703 0.293t0.297 0.707-0.297 0.711l-4.656 4.656h9.594q1.828 0 3.496 0.711t2.871 1.918 1.918 2.871 0.715 3.5v1q0 0.414-0.293 0.707t-0.707 0.293q-0.406 0-0.703-0.297t-0.297-0.703v-1q0-1.422-0.555-2.719t-1.492-2.234-2.234-1.492-2.719-0.555h-9.594l4.656 4.664q0.297 0.297 0.297 0.703 0 0.414-0.293 0.711t-0.707 0.297-0.711-0.297l-6.359-6.367q-0.289-0.289-0.289-0.711 0-0.414 0.289-0.703l6.359-6.367q0.297-0.297 0.711-0.297z" fill="#000000"></path>
</svg>
