<?xml version="1.0" encoding="utf-8"?>
<!-- Generated by IcoMoon.io -->
<!DOCTYPE svg PUBLIC "-//W3C//DTD SVG 1.1//EN" "http://www.w3.org/Graphics/SVG/1.1/DTD/svg11.dtd">
<svg version="1.1" xmlns="http://www.w3.org/2000/svg" xmlns:xlink="http://www.w3.org/1999/xlink" width="24" height="24" viewBox="0 0 24 24">
<path d="M12 1q2.047 0 3.961 0.246t3.512 0.719 2.562 1.258 0.965 1.777v14q0 0.992-0.965 1.777t-2.562 1.258-3.512 0.719-3.961 0.246-3.961-0.246-3.512-0.719-2.562-1.258-0.965-1.777v-14q0-0.992 0.965-1.777t2.562-1.258 3.512-0.719 3.961-0.246zM21 18.984v-4.555q-1.531 0.773-3.945 1.172t-5.055 0.398-5.055-0.398-3.945-1.172v4.57q0.047 0.172 0.418 0.414t1.137 0.523 1.781 0.516 2.508 0.391 3.156 0.156 3.156-0.156 2.508-0.395 1.781-0.52 1.137-0.523 0.418-0.422zM21 11.984v-4.555q-1.531 0.773-3.945 1.172t-5.055 0.398-5.055-0.398-3.945-1.172v4.57q0.047 0.172 0.418 0.414t1.137 0.523 1.781 0.516 2.508 0.391 3.156 0.156 3.156-0.156 2.504-0.391 1.777-0.516 1.141-0.527 0.422-0.426zM12 3q-1.648 0-3.133 0.156t-2.492 0.387-1.777 0.508-1.152 0.523-0.445 0.426q0.063 0.18 0.445 0.426t1.152 0.523 1.777 0.508 2.492 0.387 3.133 0.156 3.133-0.156 2.492-0.387 1.777-0.508 1.152-0.523 0.445-0.426q-0.063-0.18-0.445-0.426t-1.152-0.523-1.777-0.508-2.492-0.387-3.133-0.156z" fill="#000000"></path>
</svg>
