<?xml version="1.0" encoding="utf-8"?>
<!-- Generated by IcoMoon.io -->
<!DOCTYPE svg PUBLIC "-//W3C//DTD SVG 1.1//EN" "http://www.w3.org/Graphics/SVG/1.1/DTD/svg11.dtd">
<svg version="1.1" xmlns="http://www.w3.org/2000/svg" xmlns:xlink="http://www.w3.org/1999/xlink" width="24" height="24" viewBox="0 0 24 24">
<path d="M18 2q1.656 0 2.828 1.172t1.172 2.828-1.172 2.828-2.828 1.172q-0.883 0-1.668-0.363t-1.348-1.012l-5.070 2.539q0.086 0.414 0.086 0.836t-0.086 0.836l5.070 2.539q0.563-0.648 1.348-1.012t1.668-0.363q1.656 0 2.828 1.172t1.172 2.828-1.172 2.828-2.828 1.172-2.828-1.172-1.172-2.828q0-0.422 0.086-0.836l-5.070-2.539q-0.563 0.648-1.348 1.012t-1.668 0.363q-1.656 0-2.828-1.172t-1.172-2.828 1.172-2.828 2.828-1.172q0.883 0 1.668 0.363t1.348 1.012l5.070-2.539q-0.086-0.414-0.086-0.836 0-1.656 1.172-2.828t2.828-1.172zM6 10q-0.828 0-1.414 0.586t-0.586 1.414 0.586 1.414 1.414 0.586 1.414-0.586 0.586-1.414-0.586-1.414-1.414-0.586zM18 16q-0.828 0-1.414 0.586t-0.586 1.414 0.586 1.414 1.414 0.586 1.414-0.586 0.586-1.414-0.586-1.414-1.414-0.586zM18 4q-0.828 0-1.414 0.586t-0.586 1.414 0.586 1.414 1.414 0.586 1.414-0.586 0.586-1.414-0.586-1.414-1.414-0.586z" fill="#000000"></path>
</svg>
