<?xml version="1.0" encoding="utf-8"?>
<!-- Generated by IcoMoon.io -->
<!DOCTYPE svg PUBLIC "-//W3C//DTD SVG 1.1//EN" "http://www.w3.org/Graphics/SVG/1.1/DTD/svg11.dtd">
<svg version="1.1" xmlns="http://www.w3.org/2000/svg" xmlns:xlink="http://www.w3.org/1999/xlink" width="24" height="24" viewBox="0 0 24 24">
<path d="M12 4q3.070 0 5.977 1.078t5.273 3.172q0.336 0.289 0.336 0.75 0 0.391-0.25 0.664l-0.047 0.047q-0.289 0.289-0.703 0.289-0.391 0-0.664-0.25-2.086-1.844-4.652-2.797t-5.27-0.953-5.27 0.953-4.652 2.797q-0.273 0.25-0.664 0.25-0.461 0-0.75-0.336-0.25-0.273-0.25-0.664 0-0.461 0.336-0.75 2.375-2.094 5.277-3.172t5.973-1.078zM12.008 16q1.359 0 2.523 0.687 0.234 0.141 0.367 0.371t0.133 0.496-0.141 0.5q-0.070 0.117-0.156 0.203-0.289 0.289-0.711 0.289-0.281 0-0.5-0.133-0.711-0.414-1.516-0.414-0.813 0-1.523 0.414-0.25 0.141-0.508 0.141-0.57 0-0.867-0.492-0.141-0.234-0.141-0.5 0-0.57 0.492-0.867 1.18-0.695 2.547-0.695zM12 10.008q1.891 0 3.68 0.625t3.281 1.852q0.367 0.297 0.367 0.773 0 0.359-0.227 0.633-0.047 0.063-0.063 0.078-0.289 0.289-0.703 0.289-0.367 0-0.641-0.227-1.219-1-2.688-1.516t-3.008-0.516-3.008 0.516-2.688 1.516q-0.273 0.227-0.633 0.227-0.477 0-0.773-0.367-0.227-0.273-0.227-0.633 0-0.477 0.367-0.773 1.484-1.227 3.281-1.852t3.68-0.625z" fill="#000000"></path>
</svg>
