<?xml version="1.0" encoding="utf-8"?>
<!-- Generated by IcoMoon.io -->
<!DOCTYPE svg PUBLIC "-//W3C//DTD SVG 1.1//EN" "http://www.w3.org/Graphics/SVG/1.1/DTD/svg11.dtd">
<svg version="1.1" xmlns="http://www.w3.org/2000/svg" xmlns:xlink="http://www.w3.org/1999/xlink" width="24" height="24" viewBox="0 0 24 24">
<path d="M6 4q0.414 0 0.711 0.297l7 7q0.289 0.289 0.289 0.703 0 0.422-0.289 0.711l-7 7q-0.289 0.289-0.711 0.289-0.414 0-0.707-0.289t-0.293-0.703q0-0.406 0.289-0.711l6.297-6.297-6.297-6.289q-0.289-0.305-0.289-0.711 0-0.414 0.293-0.707t0.707-0.293zM17 4q0.414 0 0.707 0.293t0.293 0.707v14q0 0.414-0.293 0.707t-0.707 0.293-0.707-0.293-0.293-0.707v-14q0-0.414 0.293-0.707t0.707-0.293z" fill="#000000"></path>
</svg>
