<?xml version="1.0" encoding="utf-8"?>
<!-- Generated by IcoMoon.io -->
<!DOCTYPE svg PUBLIC "-//W3C//DTD SVG 1.1//EN" "http://www.w3.org/Graphics/SVG/1.1/DTD/svg11.dtd">
<svg version="1.1" xmlns="http://www.w3.org/2000/svg" xmlns:xlink="http://www.w3.org/1999/xlink" width="24" height="24" viewBox="0 0 24 24">
<path d="M4 1h16q1.242 0 2.121 0.879t0.879 2.121v16q0 1.242-0.879 2.121t-2.121 0.879h-16q-1.242 0-2.121-0.879t-0.879-2.121v-16q0-1.242 0.879-2.121t2.121-0.879zM20 3h-16q-0.414 0-0.707 0.293t-0.293 0.707v16q0 0.414 0.293 0.707t0.707 0.293h16q0.414 0 0.707-0.293t0.293-0.707v-16q0-0.414-0.293-0.707t-0.707-0.293zM14.828 8.164q0.414 0 0.711 0.297t0.297 0.711-0.297 0.711l-2.125 2.117 2.125 2.117q0.297 0.297 0.297 0.711t-0.297 0.707-0.711 0.293-0.703-0.289l-2.125-2.125-2.125 2.125q-0.281 0.289-0.703 0.289-0.43 0-0.715-0.285t-0.285-0.715q0-0.422 0.289-0.711l2.125-2.117-2.125-2.117q-0.289-0.289-0.289-0.711 0-0.414 0.293-0.711t0.707-0.297q0.422 0 0.703 0.297l2.125 2.125 2.125-2.125q0.297-0.297 0.703-0.297z" fill="#000000"></path>
</svg>
