<?xml version="1.0" encoding="utf-8"?>
<!-- Generated by IcoMoon.io -->
<!DOCTYPE svg PUBLIC "-//W3C//DTD SVG 1.1//EN" "http://www.w3.org/Graphics/SVG/1.1/DTD/svg11.dtd">
<svg version="1.1" xmlns="http://www.w3.org/2000/svg" xmlns:xlink="http://www.w3.org/1999/xlink" width="24" height="24" viewBox="0 0 24 24">
<path d="M11.5 0q1.445 0 2.473 1.027t1.027 2.473v10.758q0.93 0.773 1.465 1.879t0.535 2.363q0 1.117-0.434 2.137t-1.172 1.758-1.758 1.172-2.137 0.434-2.137-0.434-1.758-1.172-1.172-1.758-0.434-2.137q0-1.258 0.535-2.363t1.465-1.879v-10.758q0-1.445 1.027-2.473t2.473-1.027zM11.5 2q-0.625 0-1.062 0.438t-0.438 1.062v11.844q-0.898 0.43-1.449 1.277t-0.551 1.879q0 1.445 1.027 2.473t2.473 1.027 2.473-1.027 1.027-2.473q0-1.031-0.551-1.879t-1.449-1.277v-11.844q0-0.625-0.438-1.062t-1.062-0.438z" fill="#000000"></path>
</svg>
