<?xml version="1.0" encoding="utf-8"?>
<!-- Generated by IcoMoon.io -->
<!DOCTYPE svg PUBLIC "-//W3C//DTD SVG 1.1//EN" "http://www.w3.org/Graphics/SVG/1.1/DTD/svg11.dtd">
<svg version="1.1" xmlns="http://www.w3.org/2000/svg" xmlns:xlink="http://www.w3.org/1999/xlink" width="24" height="24" viewBox="0 0 24 24">
<path d="M12 1q1.758 0 3.418 0.492t3.047 1.398 2.5 2.137 1.852 2.762 1.020 3.211q0.164 0.969 0.164 2h-11v6q0 0.828 0.586 1.414t1.414 0.586 1.414-0.586 0.586-1.414q0-0.414 0.293-0.707t0.707-0.293 0.707 0.293 0.293 0.707q0 1.656-1.172 2.828t-2.828 1.172-2.828-1.172-1.172-2.828v-6h-11q0-1.031 0.164-2 0.281-1.68 1.020-3.211t1.852-2.762 2.5-2.137 3.047-1.398 3.418-0.492zM12 3q-2.375 0-4.461 1.047t-3.48 2.867-1.855 4.086h19.594q-0.461-2.266-1.855-4.086t-3.48-2.867-4.461-1.047z" fill="#000000"></path>
</svg>
