<?xml version="1.0" encoding="utf-8"?>
<!-- Generated by IcoMoon.io -->
<!DOCTYPE svg PUBLIC "-//W3C//DTD SVG 1.1//EN" "http://www.w3.org/Graphics/SVG/1.1/DTD/svg11.dtd">
<svg version="1.1" xmlns="http://www.w3.org/2000/svg" xmlns:xlink="http://www.w3.org/1999/xlink" width="24" height="24" viewBox="0 0 24 24">
<path d="M12 1q1.633 0 3.012 0.805t2.184 2.184 0.805 3.012v1q0 0.414-0.293 0.707t-0.707 0.293-0.707-0.293-0.293-0.707v-1q0-1.656-1.172-2.828t-2.828-1.172-2.828 1.172-1.172 2.828v4h12q1.242 0 2.121 0.879t0.879 2.121v6q0 1.242-0.879 2.121t-2.121 0.879h-16q-1.242 0-2.121-0.879t-0.879-2.121v-6q0-1.242 0.879-2.121t2.121-0.879h2v-4q0-1.633 0.805-3.012t2.184-2.184 3.012-0.805zM20 13h-16q-0.414 0-0.707 0.293t-0.293 0.707v6q0 0.414 0.293 0.707t0.707 0.293h16q0.414 0 0.707-0.293t0.293-0.707v-6q0-0.414-0.293-0.707t-0.707-0.293z" fill="#000000"></path>
</svg>
