<?xml version="1.0" encoding="utf-8"?>
<!-- Generated by IcoMoon.io -->
<!DOCTYPE svg PUBLIC "-//W3C//DTD SVG 1.1//EN" "http://www.w3.org/Graphics/SVG/1.1/DTD/svg11.dtd">
<svg version="1.1" xmlns="http://www.w3.org/2000/svg" xmlns:xlink="http://www.w3.org/1999/xlink" width="24" height="24" viewBox="0 0 24 24">
<path d="M5 0h14q1.242 0 2.121 0.879t0.879 2.121v14q0 1.242-0.879 2.121t-2.121 0.879h-4v-2h4q0.414 0 0.707-0.293t0.293-0.707v-14q0-0.414-0.293-0.707t-0.707-0.293h-14q-0.414 0-0.707 0.293t-0.293 0.707v14q0 0.414 0.293 0.707t0.707 0.293h4v2h-4q-1.242 0-2.121-0.879t-0.879-2.121v-14q0-1.242 0.879-2.121t2.121-0.879zM12 7q0.422 0 0.711 0.289l4 4q0.289 0.289 0.289 0.711 0 0.414-0.293 0.707t-0.707 0.293q-0.406 0-0.711-0.289l-2.289-2.297v12.586q0 0.414-0.293 0.707t-0.707 0.293-0.707-0.293-0.293-0.707v-12.586l-2.289 2.297q-0.305 0.289-0.711 0.289-0.414 0-0.707-0.293t-0.293-0.707q0-0.406 0.289-0.711l4-4q0.289-0.289 0.711-0.289z" fill="#000000"></path>
</svg>
