<?xml version="1.0" encoding="utf-8"?>
<!-- Generated by IcoMoon.io -->
<!DOCTYPE svg PUBLIC "-//W3C//DTD SVG 1.1//EN" "http://www.w3.org/Graphics/SVG/1.1/DTD/svg11.dtd">
<svg version="1.1" xmlns="http://www.w3.org/2000/svg" xmlns:xlink="http://www.w3.org/1999/xlink" width="24" height="24" viewBox="0 0 24 24">
<path d="M9 0h6q1.242 0 2.121 0.879t0.879 2.121v2.297q1.406 1.25 2.203 2.996t0.797 3.707-0.797 3.703-2.203 3v2.297q0 1.242-0.879 2.121t-2.121 0.879h-6q-1.242 0-2.121-0.879t-0.879-2.121v-2.297q-1.406-1.258-2.203-3t-0.797-3.703 0.797-3.707 2.203-2.996v-2.297q0-1.242 0.879-2.121t2.121-0.879zM16 21v-0.938q-1.875 0.938-4 0.938t-4-0.938v0.938q0 0.414 0.293 0.707t0.707 0.293h6q0.414 0 0.707-0.293t0.293-0.707zM12 5q-1.422 0-2.719 0.555t-2.234 1.492-1.492 2.234-0.555 2.719 0.555 2.719 1.492 2.234 2.234 1.492 2.719 0.555 2.719-0.555 2.234-1.492 1.492-2.234 0.555-2.719-0.555-2.719-1.492-2.234-2.234-1.492-2.719-0.555zM12 7q0.414 0 0.707 0.293t0.293 0.707v3.586l1.711 1.703q0.289 0.289 0.289 0.711t-0.289 0.711-0.711 0.289-0.711-0.289l-2-2q-0.289-0.289-0.289-0.711v-4q0-0.414 0.293-0.707t0.707-0.293zM15 2h-6q-0.414 0-0.707 0.293t-0.293 0.707v0.938q1.875-0.938 4-0.938t4 0.938v-0.938q0-0.414-0.293-0.707t-0.707-0.293z" fill="#000000"></path>
</svg>
