<?xml version="1.0" encoding="utf-8"?>
<!-- Generated by IcoMoon.io -->
<!DOCTYPE svg PUBLIC "-//W3C//DTD SVG 1.1//EN" "http://www.w3.org/Graphics/SVG/1.1/DTD/svg11.dtd">
<svg version="1.1" xmlns="http://www.w3.org/2000/svg" xmlns:xlink="http://www.w3.org/1999/xlink" width="24" height="24" viewBox="0 0 24 24">
<path d="M12 1q1.656 0 2.828 1.172t1.172 2.828q0 1.383-0.844 2.457t-2.156 1.41v12.078q1.664-0.188 3.145-0.965t2.547-1.957 1.688-2.75 0.621-3.273q0-0.414 0.293-0.707t0.707-0.293 0.707 0.293 0.293 0.707q0 2.242-0.871 4.277t-2.344 3.508-3.508 2.344-4.277 0.871-4.277-0.871-3.508-2.344-2.344-3.508-0.871-4.277q0-0.414 0.293-0.707t0.707-0.293 0.707 0.293 0.293 0.707q0 1.703 0.621 3.273t1.688 2.75 2.547 1.957 3.145 0.965v-12.078q-1.313-0.336-2.156-1.41t-0.844-2.457q0-1.656 1.172-2.828t2.828-1.172zM12 3q-0.828 0-1.414 0.586t-0.586 1.414 0.586 1.414 1.414 0.586 1.414-0.586 0.586-1.414-0.586-1.414-1.414-0.586z" fill="#000000"></path>
</svg>
