<?xml version="1.0" encoding="utf-8"?>
<!-- Generated by IcoMoon.io -->
<!DOCTYPE svg PUBLIC "-//W3C//DTD SVG 1.1//EN" "http://www.w3.org/Graphics/SVG/1.1/DTD/svg11.dtd">
<svg version="1.1" xmlns="http://www.w3.org/2000/svg" xmlns:xlink="http://www.w3.org/1999/xlink" width="24" height="24" viewBox="0 0 24 24">
<path d="M12 0q1.016 0 1.941 0.398t1.594 1.066 1.066 1.594 0.398 1.941v1h4v15q0 1.242-0.879 2.121t-2.121 0.879h-12q-1.242 0-2.121-0.879t-0.879-2.121v-15h4v-1q0-1.016 0.398-1.941t1.066-1.594 1.594-1.066 1.941-0.398zM19 21v-13h-14v13q0 0.414 0.293 0.707t0.707 0.293h12q0.414 0 0.707-0.293t0.293-0.707zM12 2q-1.242 0-2.121 0.879t-0.879 2.121v1h6v-1q0-1.242-0.879-2.121t-2.121-0.879z" fill="#000000"></path>
</svg>
