<?xml version="1.0" encoding="utf-8"?>
<!-- Generated by IcoMoon.io -->
<!DOCTYPE svg PUBLIC "-//W3C//DTD SVG 1.1//EN" "http://www.w3.org/Graphics/SVG/1.1/DTD/svg11.dtd">
<svg version="1.1" xmlns="http://www.w3.org/2000/svg" xmlns:xlink="http://www.w3.org/1999/xlink" width="24" height="24" viewBox="0 0 24 24">
<path d="M12 1q1.289 0 2.438 0.418t2.039 1.152 1.602 1.746 1.184 2.187 0.738 2.496q0.789 3.961 1.676 6.262t2.324 3.738h-9.172q0.172 0.492 0.172 1 0 1.242-0.879 2.121t-2.121 0.879-2.121-0.879-0.879-2.121q0-0.508 0.172-1h-9.172q1.437-1.437 2.324-3.738t1.676-6.262q0.266-1.32 0.738-2.496t1.184-2.187 1.602-1.746 2.039-1.152 2.438-0.418zM12 19q-0.414 0-0.707 0.293t-0.293 0.707 0.293 0.707 0.707 0.293 0.707-0.293 0.293-0.707-0.293-0.707-0.707-0.293zM12 3q-0.906 0-1.707 0.281t-1.371 0.719-1.059 1.051-0.793 1.191-0.551 1.234-0.363 1.082-0.195 0.832q-1 5.039-2.203 7.609h16.484q-1.203-2.57-2.203-7.609-0.078-0.406-0.195-0.832t-0.363-1.082-0.551-1.234-0.793-1.191-1.059-1.051-1.371-0.719-1.707-0.281z" fill="#000000"></path>
</svg>
