<?xml version="1.0" encoding="utf-8"?>
<!-- Generated by IcoMoon.io -->
<!DOCTYPE svg PUBLIC "-//W3C//DTD SVG 1.1//EN" "http://www.w3.org/Graphics/SVG/1.1/DTD/svg11.dtd">
<svg version="1.1" xmlns="http://www.w3.org/2000/svg" xmlns:xlink="http://www.w3.org/1999/xlink" width="24" height="24" viewBox="0 0 24 24">
<path d="M8 2h8l2 3h3q1.242 0 2.121 0.895t0.879 2.137v10.984q0 1.242-0.879 2.113t-2.121 0.871h-18q-1.242 0-2.121-0.879t-0.879-2.121v-10.984q0-1.242 0.879-2.129t2.121-0.887h3zM12 8q1.016 0 1.941 0.398t1.594 1.066 1.066 1.594 0.398 1.941-0.398 1.941-1.066 1.594-1.594 1.066-1.941 0.398-1.941-0.398-1.594-1.066-1.066-1.594-0.398-1.941 0.398-1.941 1.066-1.594 1.594-1.066 1.941-0.398zM12 10q-1.242 0-2.121 0.879t-0.879 2.121 0.879 2.121 2.121 0.879 2.121-0.879 0.879-2.121-0.879-2.121-2.121-0.879zM16.93 7l-1.961-3h-5.898l-2 3h-4.070q-0.414 0-0.707 0.297t-0.293 0.719v10.984q0 0.414 0.293 0.707t0.707 0.293h18q0.422 0 0.711-0.285t0.289-0.699v-10.984q0-0.422-0.297-0.727t-0.703-0.305h-4.070z" fill="#000000"></path>
</svg>
