<?xml version="1.0" encoding="utf-8"?>
<!-- Generated by IcoMoon.io -->
<!DOCTYPE svg PUBLIC "-//W3C//DTD SVG 1.1//EN" "http://www.w3.org/Graphics/SVG/1.1/DTD/svg11.dtd">
<svg version="1.1" xmlns="http://www.w3.org/2000/svg" xmlns:xlink="http://www.w3.org/1999/xlink" width="24" height="24" viewBox="0 0 24 24">
<path d="M12 1q2.242 0 4.277 0.871t3.508 2.344 2.344 3.508 0.871 4.277-0.871 4.277-2.344 3.508-3.508 2.344-4.277 0.871-4.277-0.871-3.508-2.344-2.344-3.508-0.871-4.277 0.871-4.277 2.344-3.508 3.508-2.344 4.277-0.871zM12 3q-1.828 0-3.496 0.715t-2.871 1.918-1.918 2.871-0.715 3.496 0.715 3.496 1.918 2.871 2.871 1.918 3.496 0.715 3.496-0.715 2.871-1.918 1.918-2.871 0.715-3.496-0.715-3.496-1.918-2.871-2.871-1.918-3.496-0.715zM14.828 8.164q0.414 0 0.711 0.293t0.297 0.707-0.297 0.711l-2.125 2.125 2.125 2.117q0.297 0.297 0.297 0.703 0 0.414-0.297 0.707t-0.711 0.293-0.703-0.289l-2.125-2.117-2.117 2.117q-0.289 0.289-0.711 0.289-0.414 0-0.707-0.289t-0.293-0.703q0-0.422 0.289-0.711l2.125-2.117-2.125-2.125q-0.289-0.289-0.289-0.703t0.293-0.711 0.707-0.297 0.711 0.297l2.117 2.125 2.125-2.125q0.297-0.297 0.703-0.297z" fill="#000000"></path>
</svg>
