<?xml version="1.0" encoding="utf-8"?>
<!-- Generated by IcoMoon.io -->
<!DOCTYPE svg PUBLIC "-//W3C//DTD SVG 1.1//EN" "http://www.w3.org/Graphics/SVG/1.1/DTD/svg11.dtd">
<svg version="1.1" xmlns="http://www.w3.org/2000/svg" xmlns:xlink="http://www.w3.org/1999/xlink" width="24" height="24" viewBox="0 0 24 24">
<path d="M15 3q1.828 0 3.496 0.715t2.871 1.918 1.918 2.871 0.715 3.496-0.715 3.496-1.918 2.871-2.871 1.918-3.496 0.715h-9q-1.633 0-3.012-0.805t-2.184-2.184-0.805-3.012 0.805-3.012 2.184-2.184 3.012-0.805h0.516q0.617-1.742 1.859-3.098t2.973-2.129 3.652-0.773zM15 5q-1.297 0-2.496 0.465t-2.109 1.262-1.523 1.906-0.793 2.367h-2.078q-1.656 0-2.828 1.172t-1.172 2.828 1.172 2.828 2.828 1.172h9q1.422 0 2.719-0.555t2.234-1.492 1.492-2.234 0.555-2.719-0.555-2.719-1.492-2.234-2.234-1.492-2.719-0.555z" fill="#000000"></path>
</svg>
