<?xml version="1.0" encoding="utf-8"?>
<!-- Generated by IcoMoon.io -->
<!DOCTYPE svg PUBLIC "-//W3C//DTD SVG 1.1//EN" "http://www.w3.org/Graphics/SVG/1.1/DTD/svg11.dtd">
<svg version="1.1" xmlns="http://www.w3.org/2000/svg" xmlns:xlink="http://www.w3.org/1999/xlink" width="24" height="24" viewBox="0 0 24 24">
<path d="M18 2q1.656 0 2.828 1.172t1.172 2.828-1.172 2.828-2.828 1.172h-2v4h2q1.656 0 2.828 1.172t1.172 2.828-1.172 2.828-2.828 1.172-2.828-1.172-1.172-2.828v-2h-4v2q0 1.656-1.172 2.828t-2.828 1.172-2.828-1.172-1.172-2.828 1.172-2.828 2.828-1.172h2v-4h-2q-1.656 0-2.828-1.172t-1.172-2.828 1.172-2.828 2.828-1.172 2.828 1.172 1.172 2.828v2h4v-2q0-1.656 1.172-2.828t2.828-1.172zM8 18v-2h-2q-0.828 0-1.414 0.586t-0.586 1.414 0.586 1.414 1.414 0.586 1.414-0.586 0.586-1.414zM6 4q-0.828 0-1.414 0.586t-0.586 1.414 0.586 1.414 1.414 0.586h2v-2q0-0.828-0.586-1.414t-1.414-0.586zM14 14v-4h-4v4h4zM18 16h-2v2q0 0.828 0.586 1.414t1.414 0.586 1.414-0.586 0.586-1.414-0.586-1.414-1.414-0.586zM18 4q-0.828 0-1.414 0.586t-0.586 1.414v2h2q0.828 0 1.414-0.586t0.586-1.414-0.586-1.414-1.414-0.586z" fill="#000000"></path>
</svg>
