<?xml version="1.0" encoding="utf-8"?>
<!-- Generated by IcoMoon.io -->
<!DOCTYPE svg PUBLIC "-//W3C//DTD SVG 1.1//EN" "http://www.w3.org/Graphics/SVG/1.1/DTD/svg11.dtd">
<svg version="1.1" xmlns="http://www.w3.org/2000/svg" xmlns:xlink="http://www.w3.org/1999/xlink" width="24" height="24" viewBox="0 0 24 24">
<path d="M5.633 7.633l6.367-6.367 6.367 6.367q1.297 1.297 1.965 2.953t0.668 3.414q0 1.766-0.668 3.414t-1.965 2.945-2.953 1.969-3.414 0.672-3.414-0.672-2.953-1.969q-1.289-1.297-1.961-2.949t-0.672-3.41 0.672-3.414 1.961-2.953zM16.953 9.047l-4.953-4.953-4.953 4.953q-1 1.008-1.523 2.297t-0.523 2.656 0.52 2.652 1.527 2.293 2.297 1.531 2.656 0.523q1.375 0 2.66-0.523t2.293-1.531 1.527-2.289 0.52-2.656q0-1.367-0.52-2.656t-1.527-2.297z" fill="#000000"></path>
</svg>
