<?xml version="1.0" encoding="utf-8"?>
<!-- Generated by IcoMoon.io -->
<!DOCTYPE svg PUBLIC "-//W3C//DTD SVG 1.1//EN" "http://www.w3.org/Graphics/SVG/1.1/DTD/svg11.dtd">
<svg version="1.1" xmlns="http://www.w3.org/2000/svg" xmlns:xlink="http://www.w3.org/1999/xlink" width="24" height="24" viewBox="0 0 24 24">
<path d="M7 1q0.828 0 1.781 0.207t1.836 0.5l1.766 0.586t1.836 0.5 1.781 0.207q0.844 0 1.664-0.102t1.398-0.25 1.035-0.297 0.684-0.25l0.219-0.102v14q-0.078 0.039-0.234 0.105t-0.66 0.242-1.051 0.305-1.379 0.238-1.676 0.109q-0.828 0-1.781-0.207t-1.836-0.5l-1.766-0.586t-1.836-0.5-1.781-0.207q-1.492 0-3 0.336v6.664q0 0.414-0.293 0.707t-0.707 0.293-0.707-0.293-0.293-0.707v-20q0.078-0.039 0.234-0.105t0.66-0.242 1.051-0.305 1.379-0.238 1.676-0.109zM7 3q-1.531 0-3 0.398v9.898q1.5-0.297 3-0.297 1.109 0 2.219 0.254t2.523 0.723q0.18 0.063 0.676 0.23t0.727 0.242 0.676 0.203 0.746 0.188 0.691 0.109 0.742 0.051q1.531 0 3-0.398v-9.898q-1.5 0.297-3 0.297-1.109 0-2.219-0.254t-2.523-0.723q-0.18-0.063-0.676-0.23t-0.727-0.242-0.676-0.203-0.746-0.188-0.691-0.109-0.742-0.051z" fill="#000000"></path>
</svg>
