<?xml version="1.0" encoding="utf-8"?>
<!-- Generated by IcoMoon.io -->
<!DOCTYPE svg PUBLIC "-//W3C//DTD SVG 1.1//EN" "http://www.w3.org/Graphics/SVG/1.1/DTD/svg11.dtd">
<svg version="1.1" xmlns="http://www.w3.org/2000/svg" xmlns:xlink="http://www.w3.org/1999/xlink" width="24" height="24" viewBox="0 0 24 24">
<path d="M12 0q1.633 0 3.012 0.805t2.184 2.184 0.805 3.012v3q0 1.25-0.484 2.367t-1.352 1.945q2.281 0.359 4.055 1.059t2.777 1.652 1.004 2.008v1.969q0 1.242-0.879 2.121t-2.121 0.879h-18q-1.242 0-2.121-0.879t-0.879-2.121v-1.977q0-1.055 1.004-2.008t2.773-1.652 4.051-1.051q-0.859-0.836-1.344-1.949t-0.484-2.363v-3q0-1.633 0.805-3.012t2.184-2.184 3.012-0.805zM12 15q-2.172 0-4.191 0.348t-3.52 0.973q-0.602 0.25-1.074 0.531t-0.719 0.508-0.371 0.395-0.125 0.27v1.977q0 0.414 0.293 0.707t0.707 0.293h18q0.414 0 0.707-0.293t0.293-0.707v-1.969q0-0.102-0.125-0.27t-0.371-0.395-0.719-0.508-1.074-0.539q-1.5-0.625-3.52-0.973t-4.191-0.348zM12 2q-1.656 0-2.828 1.172t-1.172 2.828v3q0 1.656 1.172 2.828t2.828 1.172 2.828-1.172 1.172-2.828v-3q0-1.656-1.172-2.828t-2.828-1.172z" fill="#000000"></path>
</svg>
