<?xml version="1.0" encoding="utf-8"?>
<!-- Generated by IcoMoon.io -->
<!DOCTYPE svg PUBLIC "-//W3C//DTD SVG 1.1//EN" "http://www.w3.org/Graphics/SVG/1.1/DTD/svg11.dtd">
<svg version="1.1" xmlns="http://www.w3.org/2000/svg" xmlns:xlink="http://www.w3.org/1999/xlink" width="24" height="24" viewBox="0 0 24 24">
<path d="M16.25 15.242q0.406 0 0.703 0.297l2.828 2.828q0.297 0.297 0.297 0.711 0 0.406-0.297 0.703t-0.703 0.297q-0.414 0-0.711-0.297l-2.828-2.828q-0.289-0.289-0.289-0.711 0-0.414 0.293-0.707t0.707-0.293zM7.758 15.242q0.414 0 0.707 0.293t0.293 0.707-0.297 0.711l-2.828 2.828q-0.297 0.297-0.703 0.297-0.414 0-0.707-0.293t-0.293-0.707q0-0.422 0.289-0.711l2.828-2.828q0.297-0.297 0.711-0.297zM2 11h4q0.414 0 0.707 0.293t0.293 0.707-0.293 0.707-0.707 0.293h-4q-0.414 0-0.707-0.293t-0.293-0.707 0.293-0.707 0.707-0.293zM12 17q0.414 0 0.707 0.293t0.293 0.707v4q0 0.414-0.293 0.707t-0.707 0.293-0.707-0.293-0.293-0.707v-4q0-0.414 0.293-0.707t0.707-0.293zM4.93 3.922q0.406 0 0.703 0.297l2.828 2.828q0.297 0.297 0.297 0.703 0 0.414-0.293 0.707t-0.707 0.293q-0.422 0-0.711-0.289l-2.828-2.828q-0.289-0.289-0.289-0.711 0-0.414 0.293-0.707t0.707-0.293zM18 11h4q0.414 0 0.707 0.293t0.293 0.707-0.293 0.707-0.707 0.293h-4q-0.414 0-0.707-0.293t-0.293-0.707 0.293-0.707 0.707-0.293zM12 1q0.414 0 0.707 0.293t0.293 0.707v4q0 0.414-0.293 0.707t-0.707 0.293-0.707-0.293-0.293-0.707v-4q0-0.414 0.293-0.707t0.707-0.293zM19.078 3.922q0.406 0 0.703 0.297t0.297 0.703q0 0.414-0.297 0.711l-2.828 2.828q-0.289 0.289-0.703 0.289-0.43 0-0.715-0.285t-0.285-0.715q0-0.414 0.289-0.703l2.828-2.828q0.297-0.297 0.711-0.297z" fill="#000000"></path>
</svg>
