<?xml version="1.0" encoding="utf-8"?>
<!-- Generated by IcoMoon.io -->
<!DOCTYPE svg PUBLIC "-//W3C//DTD SVG 1.1//EN" "http://www.w3.org/Graphics/SVG/1.1/DTD/svg11.dtd">
<svg version="1.1" xmlns="http://www.w3.org/2000/svg" xmlns:xlink="http://www.w3.org/1999/xlink" width="24" height="24" viewBox="0 0 24 24">
<path d="M4 3h16q1.242 0 2.121 0.879t0.879 2.121v12q0 1.242-0.879 2.121t-2.121 0.879h-16q-1.242 0-2.121-0.879t-0.879-2.121v-12q0-1.242 0.879-2.121t2.121-0.879zM21 18v-10.922l-8.375 6.703q-0.266 0.219-0.625 0.219t-0.625-0.219l-8.375-6.703v10.922q0 0.414 0.293 0.707t0.707 0.293h16q0.414 0 0.707-0.293t0.293-0.707zM20 5h-16q-0.148 0-0.328 0.055l8.328 6.664 8.328-6.664q-0.18-0.055-0.328-0.055z" fill="#000000"></path>
</svg>
