<?xml version="1.0" encoding="utf-8"?>
<!-- Generated by IcoMoon.io -->
<!DOCTYPE svg PUBLIC "-//W3C//DTD SVG 1.1//EN" "http://www.w3.org/Graphics/SVG/1.1/DTD/svg11.dtd">
<svg version="1.1" xmlns="http://www.w3.org/2000/svg" xmlns:xlink="http://www.w3.org/1999/xlink" width="24" height="24" viewBox="0 0 24 24">
<path d="M19 9q0.414 0 0.707 0.293t0.293 0.707v2q0 1.5-0.543 2.887t-1.477 2.43-2.227 1.742-2.754 0.879v2.063h3q0.414 0 0.707 0.293t0.293 0.707-0.293 0.707-0.707 0.293h-8q-0.414 0-0.707-0.293t-0.293-0.707 0.293-0.707 0.707-0.293h3v-2.063q-1.461-0.18-2.754-0.879t-2.227-1.742-1.477-2.43-0.543-2.887v-2q0-0.414 0.293-0.707t0.707-0.293 0.707 0.293 0.293 0.707v2q0 1.633 0.805 3.012t2.184 2.184 3.012 0.805 3.012-0.805 2.184-2.184 0.805-3.012v-2q0-0.414 0.293-0.707t0.707-0.293zM12 0q1.656 0 2.828 1.172t1.172 2.828v8q0 1.656-1.172 2.828t-2.828 1.172-2.828-1.172-1.172-2.828v-8q0-1.656 1.172-2.828t2.828-1.172zM12 2q-0.828 0-1.414 0.586t-0.586 1.414v8q0 0.828 0.586 1.414t1.414 0.586 1.414-0.586 0.586-1.414v-8q0-0.828-0.586-1.414t-1.414-0.586z" fill="#000000"></path>
</svg>
