<?xml version="1.0" encoding="utf-8"?>
<!-- Generated by IcoMoon.io -->
<!DOCTYPE svg PUBLIC "-//W3C//DTD SVG 1.1//EN" "http://www.w3.org/Graphics/SVG/1.1/DTD/svg11.dtd">
<svg version="1.1" xmlns="http://www.w3.org/2000/svg" xmlns:xlink="http://www.w3.org/1999/xlink" width="24" height="24" viewBox="0 0 24 24">
<path d="M15.797 0q0.977 0 1.875 0.367 0.938 0.375 1.656 1.094 0.727 0.734 1.094 1.648 0.359 0.883 0.359 1.875t-0.359 1.875q-0.367 0.914-1.094 1.648l-9.203 9.203q-0.422 0.422-1 0.664-0.563 0.219-1.125 0.219t-1.125-0.219q-0.578-0.242-1-0.664-0.438-0.438-0.656-0.992-0.219-0.531-0.219-1.125 0-0.602 0.219-1.133 0.219-0.547 0.656-0.992l8.492-8.484q0.297-0.297 0.711-0.297 0.406 0 0.703 0.297t0.297 0.703q0 0.414-0.297 0.711l-8.492 8.484q-0.289 0.289-0.289 0.711 0 0.414 0.289 0.703 0.312 0.297 0.711 0.297t0.711-0.297l9.203-9.203q0.867-0.867 0.867-2.109t-0.867-2.109q-0.891-0.875-2.117-0.875-1.234 0-2.109 0.875l-9.227 9.18q-0.719 0.719-1.094 1.656-0.367 0.898-0.367 1.883 0 0.969 0.367 1.883 0.375 0.93 1.094 1.648 0.742 0.734 1.656 1.102t1.883 0.367 1.883-0.367 1.656-1.102l9.187-9.188q0.297-0.297 0.711-0.297 0.406 0 0.703 0.297t0.297 0.703q0 0.414-0.297 0.711l-9.188 9.188q-1.008 1.008-2.32 1.539-1.25 0.516-2.633 0.516-1.375 0-2.633-0.516-1.313-0.531-2.32-1.539-1-1-1.531-2.313-0.516-1.266-0.516-2.633 0-1.375 0.516-2.633 0.523-1.297 1.531-2.32h0.008l9.219-9.18q0.719-0.719 1.648-1.094 0.914-0.367 1.875-0.367z" fill="#000000"></path>
</svg>
