<?xml version="1.0" encoding="utf-8"?>
<!-- Generated by IcoMoon.io -->
<!DOCTYPE svg PUBLIC "-//W3C//DTD SVG 1.1//EN" "http://www.w3.org/Graphics/SVG/1.1/DTD/svg11.dtd">
<svg version="1.1" xmlns="http://www.w3.org/2000/svg" xmlns:xlink="http://www.w3.org/1999/xlink" width="24" height="24" viewBox="0 0 24 24">
<path d="M11 2q1.945 0 3.766 0.734 1.867 0.758 3.305 2.195 0.008 0.008 2.93 2.867v-3.797q0-0.414 0.293-0.707t0.707-0.293 0.707 0.293 0.293 0.707v6q0 0.414-0.293 0.707t-0.707 0.293h-6q-0.414 0-0.707-0.293t-0.293-0.707 0.293-0.707 0.707-0.293h3.375q-2.172-2.109-2.719-2.656-1.164-1.164-2.648-1.758-1.43-0.586-3.008-0.586t-3.008 0.586q-1.492 0.594-2.648 1.758-1.156 1.156-1.758 2.648-0.586 1.43-0.586 3.008t0.586 3.008q0.602 1.492 1.758 2.648 1.156 1.164 2.648 1.758 1.43 0.586 3.008 0.586t3.008-0.586q1.484-0.594 2.648-1.758 1.297-1.297 1.891-2.992 0.133-0.391 0.508-0.566t0.766-0.043q0.391 0.141 0.57 0.516t0.039 0.766q-0.359 1.023-0.973 2t-1.387 1.734q-1.437 1.437-3.305 2.195-1.82 0.734-3.766 0.734t-3.766-0.734q-1.867-0.758-3.305-2.195t-2.195-3.305q-0.734-1.82-0.734-3.766t0.734-3.766q0.758-1.867 2.195-3.305t3.305-2.195q1.82-0.734 3.766-0.734z" fill="#000000"></path>
</svg>
