<?xml version="1.0" encoding="utf-8"?>
<!-- Generated by IcoMoon.io -->
<!DOCTYPE svg PUBLIC "-//W3C//DTD SVG 1.1//EN" "http://www.w3.org/Graphics/SVG/1.1/DTD/svg11.dtd">
<svg version="1.1" xmlns="http://www.w3.org/2000/svg" xmlns:xlink="http://www.w3.org/1999/xlink" width="24" height="24" viewBox="0 0 24 24">
<path d="M1 13h6q0.414 0 0.707 0.293t0.293 0.707-0.293 0.707-0.707 0.293h-3.375l2.719 2.656q1.156 1.164 2.648 1.758 1.43 0.586 3.008 0.586t3.008-0.586q0.781-0.32 1.465-0.785t1.164-0.953 0.875-1.047 0.633-1.027 0.402-0.938q0.141-0.391 0.516-0.566t0.758-0.043q0.391 0.141 0.566 0.512t0.043 0.754q-0.328 1-0.953 1.984t-1.406 1.766q-1.437 1.437-3.305 2.195-1.812 0.734-3.766 0.734-1.945 0-3.766-0.734-1.867-0.758-3.305-2.195l-2.93-2.867v3.797q0 0.414-0.293 0.707t-0.707 0.293-0.707-0.293-0.293-0.707v-6q0-0.414 0.293-0.707t0.707-0.293zM12 2q1.945 0 3.766 0.734 1.867 0.758 3.305 2.195l0.016 0.016 2.914 2.852v-3.797q0-0.414 0.293-0.707t0.707-0.293 0.707 0.293 0.293 0.707v6q0 0.414-0.293 0.707t-0.707 0.293h-6q-0.414 0-0.707-0.293t-0.293-0.707 0.293-0.707 0.707-0.293h3.375l-2.719-2.656q-1.141-1.141-2.598-1.742t-3.059-0.602q-1.578 0-3.008 0.586-1.492 0.594-2.648 1.758-0.469 0.414-1.027 1.262t-0.863 1.73q-0.141 0.391-0.516 0.566t-0.758 0.043q-0.391-0.141-0.566-0.512t-0.043-0.754q0.328-1 0.953-1.984t1.406-1.766q1.437-1.437 3.305-2.195 1.82-0.734 3.766-0.734z" fill="#000000"></path>
</svg>
