<?xml version="1.0" encoding="utf-8"?>
<!-- Generated by IcoMoon.io -->
<!DOCTYPE svg PUBLIC "-//W3C//DTD SVG 1.1//EN" "http://www.w3.org/Graphics/SVG/1.1/DTD/svg11.dtd">
<svg version="1.1" xmlns="http://www.w3.org/2000/svg" xmlns:xlink="http://www.w3.org/1999/xlink" width="24" height="24" viewBox="0 0 24 24">
<path d="M4 1h16q1.242 0 2.121 0.879t0.879 2.121v16q0 1.242-0.879 2.121t-2.121 0.879h-16q-1.242 0-2.121-0.879t-0.879-2.121v-16q0-1.242 0.879-2.121t2.121-0.879zM20 3h-16q-0.414 0-0.707 0.293t-0.293 0.707v16q0 0.414 0.293 0.707t0.707 0.293h16q0.414 0 0.707-0.293t0.293-0.707v-16q0-0.414-0.293-0.707t-0.707-0.293zM16 8.523q0.406 0 0.703 0.293t0.297 0.707-0.297 0.711l-4.945 4.945q-0.289 0.289-0.703 0.289-0.422 0-0.711-0.289l-2.828-2.828q-0.289-0.289-0.289-0.711 0-0.414 0.293-0.707t0.707-0.293q0.406 0 0.703 0.297l2.117 2.125 4.242-4.242q0.297-0.297 0.711-0.297z" fill="#000000"></path>
</svg>
