<?xml version="1.0" encoding="utf-8"?>
<!-- Generated by IcoMoon.io -->
<!DOCTYPE svg PUBLIC "-//W3C//DTD SVG 1.1//EN" "http://www.w3.org/Graphics/SVG/1.1/DTD/svg11.dtd">
<svg version="1.1" xmlns="http://www.w3.org/2000/svg" xmlns:xlink="http://www.w3.org/1999/xlink" width="24" height="24" viewBox="0 0 24 24">
<path d="M12 6q1.633 0 3.012 0.805t2.184 2.184 0.805 3.012-0.805 3.012-2.184 2.184-3.012 0.805-3.012-0.805-2.184-2.184-0.805-3.012 0.805-3.012 2.184-2.184 3.012-0.805zM5.641 17.359q0.414 0 0.707 0.297t0.293 0.711q0 0.406-0.297 0.703l-1.414 1.414q-0.297 0.297-0.703 0.297-0.414 0-0.707-0.293t-0.293-0.707q0-0.422 0.289-0.711l1.414-1.414q0.297-0.297 0.711-0.297zM12 20q0.414 0 0.707 0.293t0.293 0.707v2q0 0.414-0.293 0.707t-0.707 0.293-0.707-0.293-0.293-0.707v-2q0-0.414 0.293-0.707t0.707-0.293zM1 11h2q0.414 0 0.707 0.293t0.293 0.707-0.293 0.707-0.707 0.293h-2q-0.414 0-0.707-0.293t-0.293-0.707 0.293-0.707 0.707-0.293zM12 8q-1.656 0-2.828 1.172t-1.172 2.828 1.172 2.828 2.828 1.172 2.828-1.172 1.172-2.828-1.172-2.828-2.828-1.172zM18.367 17.359q0.406 0 0.703 0.297l1.414 1.414q0.297 0.297 0.297 0.711 0 0.406-0.297 0.703t-0.703 0.297q-0.414 0-0.711-0.297l-1.414-1.414q-0.289-0.289-0.289-0.703t0.293-0.711 0.707-0.297zM4.227 3.219q0.406 0 0.703 0.297l1.414 1.414q0.297 0.297 0.297 0.703 0 0.414-0.293 0.707t-0.707 0.293q-0.422 0-0.711-0.289l-1.414-1.414q-0.289-0.289-0.289-0.711 0-0.414 0.293-0.707t0.707-0.293zM12 0q0.414 0 0.707 0.293t0.293 0.707v2q0 0.414-0.293 0.707t-0.707 0.293-0.707-0.293-0.293-0.707v-2q0-0.414 0.293-0.707t0.707-0.293zM21 11h2q0.414 0 0.707 0.293t0.293 0.707-0.293 0.707-0.707 0.293h-2q-0.414 0-0.707-0.293t-0.293-0.707 0.293-0.707 0.707-0.293zM19.781 3.219q0.406 0 0.703 0.297t0.297 0.703q0 0.414-0.297 0.711l-1.414 1.414q-0.289 0.289-0.703 0.289-0.43 0-0.715-0.285t-0.285-0.715q0-0.414 0.289-0.703l1.414-1.414q0.297-0.297 0.711-0.297z" fill="#000000"></path>
</svg>
