<?xml version="1.0" encoding="utf-8"?>
<!-- Generated by IcoMoon.io -->
<!DOCTYPE svg PUBLIC "-//W3C//DTD SVG 1.1//EN" "http://www.w3.org/Graphics/SVG/1.1/DTD/svg11.dtd">
<svg version="1.1" xmlns="http://www.w3.org/2000/svg" xmlns:xlink="http://www.w3.org/1999/xlink" width="24" height="24" viewBox="0 0 24 24">
<path d="M1 1h11.313l9.813 9.805q0.875 0.875 0.875 2.117 0 1.25-0.875 2.125l-7.078 7.078q-0.875 0.875-2.117 0.875-1.25 0-2.125-0.875l-9.805-9.813v-11.313zM20.711 12.219l-9.227-9.219h-8.484v8.484l9.219 9.227q0.297 0.289 0.711 0.289t0.703-0.289l7.078-7.078q0.289-0.289 0.289-0.703t-0.289-0.711zM8.5 6q1.039 0 1.77 0.73t0.73 1.77-0.73 1.77-1.77 0.73-1.77-0.73-0.73-1.77 0.73-1.77 1.77-0.73zM8.5 8q-0.203 0-0.352 0.148t-0.148 0.352 0.148 0.352 0.352 0.148 0.352-0.148 0.148-0.352-0.148-0.352-0.352-0.148z" fill="#000000"></path>
</svg>
