<?xml version="1.0" encoding="utf-8"?>
<!-- Generated by IcoMoon.io -->
<!DOCTYPE svg PUBLIC "-//W3C//DTD SVG 1.1//EN" "http://www.w3.org/Graphics/SVG/1.1/DTD/svg11.dtd">
<svg version="1.1" xmlns="http://www.w3.org/2000/svg" xmlns:xlink="http://www.w3.org/1999/xlink" width="24" height="24" viewBox="0 0 24 24">
<path d="M8 4h8q1.625 0 3.105 0.633t2.555 1.707 1.707 2.555 0.633 3.105-0.633 3.105-1.707 2.555-2.555 1.707-3.105 0.633h-8q-1.625 0-3.105-0.633t-2.555-1.707-1.707-2.555-0.633-3.105 0.633-3.105 1.707-2.555 2.555-1.707 3.105-0.633zM8 8q1.656 0 2.828 1.172t1.172 2.828-1.172 2.828-2.828 1.172-2.828-1.172-1.172-2.828 1.172-2.828 2.828-1.172zM8 10q-0.828 0-1.414 0.586t-0.586 1.414 0.586 1.414 1.414 0.586 1.414-0.586 0.586-1.414-0.586-1.414-1.414-0.586zM16 6h-8q-1.633 0-3.012 0.805t-2.184 2.184-0.805 3.012 0.805 3.012 2.184 2.184 3.012 0.805h8q1.633 0 3.012-0.805t2.184-2.184 0.805-3.012-0.805-3.012-2.184-2.184-3.012-0.805z" fill="#000000"></path>
</svg>
