<?xml version="1.0" encoding="utf-8"?>
<!-- Generated by IcoMoon.io -->
<!DOCTYPE svg PUBLIC "-//W3C//DTD SVG 1.1//EN" "http://www.w3.org/Graphics/SVG/1.1/DTD/svg11.dtd">
<svg version="1.1" xmlns="http://www.w3.org/2000/svg" xmlns:xlink="http://www.w3.org/1999/xlink" width="24" height="24" viewBox="0 0 24 24">
<path d="M3 5h11q1.242 0 2.121 0.879t0.879 2.121v1.82l7-3.82v12l-7-3.82v1.82q0 1.242-0.879 2.121t-2.121 0.879h-11q-1.242 0-2.121-0.879t-0.879-2.121v-8q0-1.242 0.879-2.121t2.121-0.879zM14 7h-11q-0.414 0-0.707 0.293t-0.293 0.707v8q0 0.414 0.293 0.707t0.707 0.293h11q0.414 0 0.707-0.293t0.293-0.707v-8q0-0.414-0.293-0.707t-0.707-0.293zM22 14.633v-5.266l-4.82 2.633z" fill="#000000"></path>
</svg>
