<?xml version="1.0" encoding="utf-8"?>
<!-- Generated by IcoMoon.io -->
<!DOCTYPE svg PUBLIC "-//W3C//DTD SVG 1.1//EN" "http://www.w3.org/Graphics/SVG/1.1/DTD/svg11.dtd">
<svg version="1.1" xmlns="http://www.w3.org/2000/svg" xmlns:xlink="http://www.w3.org/1999/xlink" width="24" height="24" viewBox="0 0 24 24">
<path d="M5 8l5-5v18l-5-5h-2q-1.242 0-2.121-0.879t-0.879-2.121v-1.961q0-1.242 0.879-2.141t2.121-0.898h2zM8 16.172v-8.383l-2.172 2.211h-2.828q-0.406 0-0.703 0.309t-0.297 0.73v1.961q0 0.414 0.293 0.707t0.707 0.293h2.828zM14.531 8.664q0.289 0 0.543 0.164t0.379 0.445q0.547 1.32 0.547 2.727 0 1.43-0.547 2.711-0.117 0.281-0.371 0.449t-0.551 0.168q-0.367 0-0.684-0.277t-0.316-0.723q0-0.18 0.078-0.391 0.391-0.922 0.391-1.938 0-1.008-0.391-1.945-0.078-0.18-0.078-0.391 0-0.445 0.301-0.723t0.699-0.277zM17.586 5.875q0.563 0 0.859 0.492 0.773 1.289 1.148 2.664 0.406 1.469 0.406 2.969 0 1.492-0.406 2.977-0.383 1.391-1.148 2.664-0.289 0.484-0.859 0.484-0.391 0-0.695-0.281t-0.305-0.719q0-0.273 0.148-0.516 0.609-1.016 0.93-2.172 0.336-1.172 0.336-2.438 0-1.258-0.336-2.43-0.32-1.156-0.93-2.18-0.148-0.227-0.148-0.508 0-0.422 0.309-0.715t0.691-0.293zM20.578 3.133q0.539 0 0.828 0.438 1.273 1.867 1.934 4.016t0.66 4.414-0.66 4.414-1.934 4.016q-0.281 0.438-0.828 0.438-0.406 0-0.699-0.281t-0.293-0.719q0-0.312 0.172-0.563 2.242-3.289 2.242-7.305 0-1.969-0.57-3.828t-1.672-3.477q-0.172-0.25-0.172-0.563 0-0.438 0.293-0.719t0.699-0.281z" fill="#000000"></path>
</svg>
